<mxfile host="app.diagrams.net" modified="2021-12-08T12:00:41.283Z" agent="5.0 (X11)" etag="lV3MedkrUfij2npBWE6T" version="15.9.1" type="github">
  <diagram id="K9Bjo0kVLSbRdxtGesGN" name="Page-1">
    <mxGraphModel dx="1944" dy="1708" grid="1" gridSize="10" guides="1" tooltips="1" connect="1" arrows="1" fold="1" page="1" pageScale="1" pageWidth="850" pageHeight="1100" math="0" shadow="0">
      <root>
        <mxCell id="0" />
        <mxCell id="1" parent="0" />
        <mxCell id="8EQVTj4kNs_-uSSnPVcM-1" value="" style="shape=image;verticalLabelPosition=bottom;labelBackgroundColor=none;verticalAlign=top;aspect=fixed;imageAspect=0;image=https://www.okdo.com/us/wp-content/uploads/sites/8/2020/07/Board_05.png;fontColor=default;rotation=90;" vertex="1" parent="1">
          <mxGeometry x="-893.54" y="80.87" width="524.14" height="349.76" as="geometry" />
        </mxCell>
        <mxCell id="8EQVTj4kNs_-uSSnPVcM-3" value="" style="shape=image;verticalLabelPosition=bottom;labelBackgroundColor=#ffffff;verticalAlign=top;aspect=fixed;imageAspect=0;image=data:image/jpeg,/9j/4AAQSkZJRgABAQEAYABgAAD//gA7Q1JFQVRPUjogZ2QtanBlZyB2MS4wICh1c2luZyBJSkcgSlBFRyB2NjIpLCBxdWFsaXR5ID0gOTAK/9sAQwADAgIDAgIDAwMDBAMDBAUIBQUEBAUKBwcGCAwKDAwLCgsLDQ4SEA0OEQ4LCxAWEBETFBUVFQwPFxgWFBgSFBUU/9sAQwEDBAQFBAUJBQUJFA0LDRQUFBQUFBQUFBQUFBQUFBQUFBQUFBQUFBQUFBQUFBQUFBQUFBQUFBQUFBQUFBQUFBQU/8IAEQgBxAHEAwEiAAIRAQMRAf/EAB0AAQACAgMBAQAAAAAAAAAAAAAFBgQHAQIDCAn/xAAaAQEAAwEBAQAAAAAAAAAAAAAAAQMEAgUG/9oADAMBAAIQAxAAAAH6pAAAAAAAAAAAAAAAAAAAAAAAAAAAAAAAAAAAAAAAAAAAAAAAAAAAAAAAAAAAAAAAAAAAAAAAAAAAAAAAAAAAAAAAAAAAAAAAAAAAAAAAAAAAAAAAAAAAAAAAAAAAAPJHqjPQz2P7J7AAAAAAAAAAAAAAAAAAAAAAAAAHQ64LwPXjA8uUlzF+spL2xeSU7xneYkGL7J9AAAAAAAAAAAAAAAAAAAAADg4jfWvQ9WZ1OOldkYWDHyYowJqlysxa3ZMuziXfv58xGR6YPBIML1Mh17JAAAAAAAAAAAAAAAAA4w3gdIOcqUJekz0Xyz7pg1uXjc8SeREwM70JLjI1xKVnK5FGyjvLrx36I68d+Jefr26xPv6R/BJsH2Mh17JAAAAAAAAAAAAAYnbDh3de4hJ7mEX6e+GeXb24JKJzZJETM8xB5+WPNo1vc5aqkf26TkrB3ho+VnQ8KXJTLPDN6xslLz49x5R2PqSY+g1OscxnOOeewSAAAAAAAAAqtq0N1zsCxfmzfuX3b3+edw89Wnv5+xz24ryLFxAdSw9/L2TiwNnTGrZu59iOrkt0hly9JjJbJ612bmKRaecaEHYY7xTlYkrPS8omQ+cZiM13H3KyrEkZzArXm96Xqfv+P9lyHxjdcmn6aam2Bh2zLrzn0cuOZkAAAAAINWWnS88fJnhb8e2KznT/ANK8Td9m9K/X3OwcNZCm13dEYiLtmFRZXaQqCZuSrWU7+fftCEqGyyKLX9nxJ6cREGbLwq1c0ue+tEVP53lMS6nncmBCUd8VrHhPV8+b9/Dv7nnenXy6985ORF5HPN82P89cZrvsmwfD+4PJ9D6Bde3nemAAAODmmyeiPOu8I65ennX/AD9S/qW7/RYPXZPbAicuI6TKa7D3UerHxCQ9avjFkg8vk8vC1wEq5J43MJyU15Hm2+deW0lfH25lw5i4RHyLM1rqv3uPSU558qZKRG/LgS89vTXR8weX0xp2/mm8SXhbVH5Pj7aqePP15ceu4azuH5z2LpIcc49wJAAdVIczOv7hpXyr/SmWmyZrdoWrX8z7WW0wU137VuIvWMUiRlq4XT3r/Yz4qBnIV+QncQqUjk12W2cWjbEK5U9ocGuM25Rxm5vHU8Pl20aD6473TwtvVPj1i6tZzkS/NM9jzfK1VK7eZ6G4NCQUxvz2jcfz5snPbG13Y2vvRwwtozb9h0SG2cOV8r0wjsAB4+2gYip2DSO/c8+ORhY8LzifO+ZfX9Mz/wAlXDizc3PleExVirUF22HxryzzE5FS3Mq5Xth4Bre/4Mqc4sbFF1zKj1Liwc6QHXVE38lTziTmDsPqn18VJRk5XhH+55d/tOqdi+T6Oqq7sSJ9rz4fK2BPw1pPUfE83btygYm2LKc7bEPf/O388nFwAAHX5x2/8g6cmDbKBtfBp1hI1vjqd9VD0pmfvYGm5qSaYbZervBP0ZtD4qkOqfvau6Bl+69mZeXZe485ah4Uxslr26dPGEt4pEbsnEPTIBV5j5FREYWDdZrz/dLRzr/Gy5H2/NytVfUWl6rOneK8O2XkZdf2Uzm29G7g8H1MbW2ya16nmyN7jab523ft61XtWjSHPYAAFS1nvWqzVoqC3HX7KvmV9A1rRxkaT2lqiJk9rad3bh06QzMTJrvk7FaNK0ztKjVDZ2inC2zSOeOtnbf+G5PqPumo6qlYm8Z+ZMdMjK1t4zGz/Ck6/lWtO+dnsq952S8OEHBekp62DP13LwdvG5btrmb8vfrCTw3v+Vuel3W0eJ6fyHLTOT63m+mzonN8ndWoPXl45v3huzSO7qrA47AAAccjpX7GRq+m/QOF1x89eW5qdZXpBt/xtq+S8n6Dpt3M7o7a+oqLLJtjQux8OqlQczl9TcZG3aQy2XTX8fs/VVWt+0OMr63LsX4VkJfQulr9rjqOb5j5XVXhXOnl6mLKtNUwra9+6Nm7zl1ab68b09PDqGU3tqTLbPZFKrOW+xWaJ2lbTCaxw+cm+ibPn/oNEhllFoJAAAAAAcckQ0Dd+JjVGFuGFmvS9L3dBW1aFy9zR1nPzNF7pqd0XTUG5tR5r8HfnzpufDfQ4j2j5bUmselUd2Kw6Wueuq81/PhdeX3tVSt+/Np72vtvwa9VZ8vKbc2X1rnXP3sG6/Pf0Bk06qy4C/8Ao4LNra0avwb6Fe9dfTM95G8NZ7Eo7zwkAAAAAAAAADjDzSKXUtw8Tzo/B3FUe+dV0DfXe/N8u7SuFdmNUUu+VWe77AbJgMejXeytXXruvteazZ/SxYmsfoWu+D6mhNs3+laeLDnc4HteTCQFoiL66bfMvNx6siXz9Gefrz8yrWebdr7so99o71zb61YombEgAAAAAAAAAAAHHI8YmcTzrjD2ljzzpiI3FT5409rj6W6X1fIV22zCehkpNrxozPbn7I+Z7f5G/etF8dobaKdJwHT2PMhb9RMa2uyWzC8PC9bC1DYLJF+uPqrvsCuaLsLX19r7rMtLcy5AAAAAAAAAAAAAAAA45EPWb8mNPR+7K71Xq+kbo8bKtE++y6xbTh4mLi6qpXypmR6nnXWTh9oeJ6mD8y2SjZN15v8AVPoSZucnBWCnvXt2q1rllAAAAAAAAAAAAAAAAAAAAeXqK5E3nhzpPw3ZXpjSsftvFmqIvuFd+bNa0fa8JFk50nIyXpYqrauXXsdAAAAAAAAAAAAAAAAAAAAAAAOKXdYCERdqJe4dNY7R1+WXv1mipW3r26AAAAAAAAAAAAAAAAAAAAAAAAPD3EJNgp1xhIeNhg5wCQAAAAAAAAAAAAAAAAAAAAAAAAADjkdO4AAAAAAAAAAAAAAAAAAAAAAAAAAAAAAAAAAAAAAAAAAAAAAAAAAAAAAAAAAAAAAAAAAAAAAAAAAAAAAAAAAAAAAAAAAAAAAAAAAAAAAAAAAAAAAAAAAAAAAAAAAAf//EADIQAAICAgEDAwIFAwUAAwAAAAMEAgUAAQYREhMQFBUHUCEjMDFAICIkFiUyM0EXgJD/2gAIAQEAAQUC/wDwSnPtzrvNE3rNG1mpa390nPtze+udfTpnXpmi7jmmc1PUvuEpduty67lPUc23DW/d57zeRdHLf4bzXp3b1mi5qet/bN77dEn3ZNnu37Pc88QgxAwJjfbrJqjJhhGQ2qxFoXprP/P2zRN6zyazr9n/AGycu7GT7IRdbQIssxXiZmRI1SfhhOWh6fd9upTWxWzJ/wCJY+nT03+GdM6Z+2aLvWaLrNS1v7JOfdhN9o6yGibdsIrx9xOZ4S3ZMb7QjZa3ashRGMIawC5Y69xcD/HU5xhr5+OygeCxn75vfr++dOudvTeib1nk1mpa39gITr6Ej3jUmTQ4IzlM5fdzRVioGwZm8evrYqwx53wxQQ8Eemh6tXCPFrm1QCIvJqxhHpHes6ZvWdM1nTJftnTO+Ws0TNS6/wAwk+vp09HFdxIB6BI7RDOTShfb1aWlRTLAWTbmeStdoUsslzMhra7SY4C8t+y8upmjznldbH255Ybl6dN+nT06ZuHXOmf8cA/sz38khOnr09OmFUGfXx8o57djPamlkK8UcjHt9DvdpGLMyM9ND2T2ovLYUcyM2EnICpa72wWaYLEtqvp4u+TpFxm1NZCIkJc/cr8mrrcJxJHevSyc0KP+q9AsN8kXXkBsLEf415fr0cVr5V3UCRnrWdPXXrv1P3yDClH2TIUpVdMVspykwsvZtd69gI8vTeckPuZhaDWq6CS3berYuDORZFTjyhgDx1jS0OQ8g21MZZee69/o9OVkeKc0cTxPm6TGLvga11/h/V1Lz0QLBhTdZ9QLFHdR9U1j4hyJGxjHepa16OMyOUjvtdguhSFGcZf0eOPdvLIbB9TmKqWjVmFn+pZRSRuAlAVgYYOV4X9aqBdXnjpyC2s3iPtSyxg8Vx8t5HIpyz6b4/TTsy2W4R33+DVs0Pw6JvWCdmHaPNHldI89XJtS2Udzr/A+oTA/gTx1snjl6KNsALwNewFT4eMpjMqRBB6colOwZhytB7PNy1HQbELB+7XX1kOMpWiE316/jZYM8hOEKqZSsN+RgGQt1pS7e7C1y5sGOIoznqEeZ8o9nhCdN1ik3mDS1VruHHXrla2tAO5bh66lvWDZmLaPL7BPEPqCKeJ3qT+df1L6/BRLNN++AwtL3AGRx2rUntGeK/TQKTOta1lrZaShDZl5sWglzFBA8YVIBFDA3Y/JoTPaOtrgR1V5plodj3Z3a6+plBMZZVXvNW6xyyfT/wAdFBk+DjuMM5VyCFaswx7spq6WyqgjxxIptIA0TU81E7TGi9uanGWHjKQxQlCO2I+T98/bO/IHlGXF794rGt9dfo2vKUqvLF9a+ZbpYtVy/JC0olFp3dpw7iAeMq6/DJfji1bEO5xMXKRbzuELEMBFice2B6N266+yH7oabQbD4fN+/DiS/uWWm20FflgiGFgbEfUgYG109Lq3FXr2twa4OqL+2q8aMZbM1Gct2JdJH5CaVM2jHZdx1+WTfbOOb0boPep79OmLLyYLWre3xLU9L/oXZyLV3s9dWY18hrryWPYfTwNoHiXClePaxxuKgkVZ+TvjrbLIlhr+Lx9ptsWa/nVr6w6hGPLYvze8bNZYydnhKvubKFiqJ5Fu/fSvsffRK+hZvHZDYQYb9XnRph5PfSvXF0ZEypSgzNk/yBW3COGIPdmwR0NRCmuh39Ze8br/AAE48s3jNS5Xy2xHZoQ6b9Na7t0iGg5V1/ml+hvfTVgT8mL9fsf+3107DlbNs7x4Zfj9ejdZ52HZNwQYEKSxWJlYUHpFwLA2I4To4uwmRKtZT0wus0UiRXSy0Js60dfsdUTOP08W4yo2A7aSiKXSa2lfN4cObQY8x5DKyYiCRiIJEfIecXZG8R5PT9lNw0OLoh660kd6pV1Y6PRR3uc6u4ZEU9NTWKxqMcpsVbSuftlQjuc0KzbBwB0Af9e99NE5SnF05hvr2dfMc1Af2I8a/GVpYJYryFVjcZalr0OvBiLCHlYJ7yA0IRWA5KIA1+ouFg/NcgLIDa/wq0or17arPt+0qvuQm9TLjYgtWQTJk5ahHm3L+zcjSNNNOUpFLoALcvxgDdteGrrviw3AWJM1p4hdPZzA8/csssK9RL1+/M2pZzXe5dWjcVSvHAZGUbaYK/cMr1dKg/rKWIR8q54Zxvi9UGwrWFzIEjcTFFG6RJPkFpKS3EbL5GkYrVm5yojKS+aeQxa+UY3rfXWdOua100Su0Z24Z2iFgsfetEgUo0y9xHIR3Ntbel1RLf1b30zmHKdVoWZeQiS3sR+P4VLXZVqwJomVyEWt8f5AXdtyBaV9Ay45yLWb8mqsQDtf8eOdJZYS/wBwbufAoqnsk6xH2w6dDQRfofUaxZnlLV/IWQaOsX3Z3j3Fdg5dTWYfmav5zkd3u7ks9Z8MRrPqkbWVPKULeXZjNOm5nwziO48hZSxO7Ue/oZSG0KxrpFJoZDY7Poa0mFddYjJklrckV/eB8nrye/HUJuOFdYSW1HEoRp1dR8Yo/wC+tV498lfvrnT7VN13HhthJ5TlCek3of3D42GuM3ecWBIXiKDbLbbO1xELOnr4jFU13uda/R+oF0t7uNhCUlLAq6dpctWzPH6rd5YN/TtEolF2OD23Jr1HkS3i7ZrWTCBFPqLZRDXfUYscquVpWc+/u01QpP5CstavNcp2vJK0Wezr6sVoGSWdRuYbHy+32oQLogQDH0vLeFWteXBLRpKtmzGuWhsWvK+y3Ld08HrcstjkvXHWnCfHLEI1C2i9TCRz2hyl0LVI9Bs9HfdZ8zp9VpNQ1PVVW92NFGknw5mbVT+hyZooELitZyvrtSmBMZRWQ/YMpteMqdgZNW3u2LlquRZsWXKNpTPFveeHWQ9xHE7YiDH/AMhsxUrvqZqW0OSJvw66No/H0Hc2pc1UAcsjAiz67mvWao5n9HXIJh5VySVsyoORjJK+935vl3NESc3ZC0pNsguNK8WvmHUWf3kkBjB14vJHpDTsvDnDShg2jUiTb5TdgdDWVsjbhHXV5+dgTgJe5H9C7U8umFY4xSAYlKvcQ3Y15Bkq6rzzXrBHVsQSQarnYK7kyRZAjRNnXPoxW9yWiryatbw/H6+yi7xxpHdfb6SwX1CmFes+pYJkQvkbGJgiZgxxNfco/N1mJ8rUNgGRMx9Ck8ceccl20UY5Hmurssy78+Wtp8ZhI/FLKDjxWr1LZ50zUEKdpQLSUxxC3uH48XrqhtXkVKCtNFIqJog3INSnKZRC6R5NeRUFDfdD6el/N/QnDU4s0upY5WzhhYSDjCoTYxxoW8j8jXRdVlAlZV+5KWo7kXlS1zVc9JI/vDDqrU3yDYRGicF5dVOCv6S40XhcWYM1L9bOrvdJ7U+o0oL1H1QWbghfqPRZUA6M/FRxZk7d1GI8vTehzTl3tFv7iSVHIcTj1VLEZBSAETSsaGsiWfIPkCPL/hFyMfi5chjWDEPvnsmzE4gOa+clq1uRrmFNMoFu4iamlRuNxQCxvfuFpdVvp+iWJf0tx66apAMY5RmjEqvh0OJj6YrBHGehIvPVlYV0GtTKSuQkyWdbMqJeoS1LGk29XbBFLs0G3lmWkCrcztU4xsKG9nZcL7BnqXVN01nBXdbziOgpfURRlpK4Wd19Uu4VRff5lqOGlIKx3RADqKmoS1aFQSnyR5O9NO5uh75GqYPtilU1vQUzbJKBiZUIgm7yNhmFJUszVFeT09bU9RLeH3FeBZd07Afjb4hSkupLrwVD+qdMLOGo9j03VmFvxR3s6YdQY4+ByLFExWyHeHrotkm0wouU5Yvj8HbDeVu9L2KtjBhHkm1JNp271XJXnhOyA+Ocg2/wNhXR6x1fdNY+3LfXIbHhtazEwK5bVeNRYxTGmS9f3GV89yGzGsADHtqjhd53ucyrt+zXHI0qNSFLlyghZaNx5Mk7jV38ejIywqVDZ5z7VwP387a0/bVRxlO6DU1QKhP+B0w1UuXZOP4VWSuSW3ODaoyY3xdZiPw7SA0n1q6d05KzsF9HMQSB4V5odpAwFoyh69yHKEkE5Icls6jFvqCq3r4mi5FGXBLAZKzgpqgMDTsm7N4+9xS2XWq74ynsUirkXL2o62ggw9dmsFqFMdSpt7rlFeTdI/UhvxSJZUB5OatxoqxTV5tYxbUSl2tf+cZXIquHfcL+HKEZ6LUClh6QgNDR7ps/l4auGYLvDxklqsZqSIcmBPOQPwsbMbJI7pdFCi5GWm5C1PEVKLanIePK1o0uT2iGVLrdzGwdjXrQASsjZH1TKcZsaqnqSsSZLPh4p1k+DswFTUMBSs7MlsxKBgVCr20rFGz+HrtSLaNAWiqG1Z9iq7HyrA/tJxPi/vo9njKjLuW/jHTCzjFDvHVWBwgtvwzDprG+Pha0/wAQ7chWkqz090oaXM5p/Lac3nGpRLC7PNt0aWmJykGrr1ybBChRElIXC5QVtqoyg0Lc6xYcnZ5Bh6awTWo7g9wNmtprHbPHrOsFOxna5ZmIw8khoeWL0atdd6b0YS6EquEVZ5jHEUHY9rNXv/G/kdMYplz7a48UOLpyDJgXbhEBTNYcPCTTnFWA7il4GaFpaYubCTVktYa8olYt4EsYR4lSmsz21homa/cXBq14VdWKI3VtZbfbaj+LCdWtlfB/e52UD7r0g7ZhqJI8wtCWNlUT/KXBNk9V+RDLQfRqr/6f5ZBRLElUKUDUZh4yOW4780sark28a4ZrpaUzvlkDtzjtLF6fcbldoG4JWAXuhkyg0s0TlFz7fEqGxdL/AKlsKhlmwUod+5qreca74Zect3j4Q90r6y1OV1Drul1shq3jcKmsVl0lDfdG5FLurR9q/wDOKuM+j1HXRaX2pNxkPCH1DTtSo/JelZq9mME0j1Wj4yq4iapYfT3UKFsXTN64ymgvpKDVivcBNxxmvUXkY2Kh2KHIriFEtqfflPWguCce4XW05mY966uu4gP+reuua10+xMVYGNu0JJYdaAshAkolEI+3uOa7tTdV18gLeqViwqc9s1cWReUMd6bCdi3yBqbDVUh7Ydi8HjaNg/8AINi/4cUAQlgjvrktdYhj4mFd9RfZZw1OLNCAufCHVkUHkxqnlKTdP+E6Xs298n4evTIa/CprNkmqIIS8odffsd67ZcerC3R91wavK2XXeNB2NtcfjH9omOJNMUoTbJVEgPahFiHHqcjVOuoKaMCVyv5gK7Q19hgWdrwZWysuO0KtCjcR/OrP+Objrf20oIG0el67bTJ0CiLvrlole6ddHrpRkee4ZXz71LjXTVbL7lbKR8lXHQmsnruicZDZV67A2YtkBVQ3uX3G11/Yv1016F142Uf+zNa6fcjC8w1Edhl6WAujSEupPu9gLrlfDr943rrmo6j/APdf/8QAJxEAAgIBAwMEAwEBAAAAAAAAAAECAxESITEQEzAEICJRQEFwFFL/2gAIAQMBAT8B/vjlgU0/I/OxblkVjcd1kH8WR9b/ANIjfCXD8LMmfK3k4LrNWyGmYMEbZw4ZT6lyemS91cNXJOuCMeVsWxdb+kQjq5JV6TBI52KatC9uSEsE5avLLgiiyzScy1CwkWzyV15iW16Wenqx8mL2MjU3uZxszPTHibwck5aUbzmKtOOktTgRrljUK6CW5J917EY+2yxxexG3KyJpslpK4rBKH0Y+x+DklsSl3Hgdbr+SP9KRF92W4klsWwUpYRCGlEePbKJpMOLO5gja8bELXksaYkzIva9zgtlq2RUtPJsTWueERgoxJznqwVwxuzgj7sDiOORx+hNxO4iNm2wvkyUEt0bmek+BbF9v6RRB5yWV53Pk3pRGLqe5K+KRXHXLU+mG/Fg0jrRhx4Iza5FYiNiQ3qHXt0tmkiFDs5O1Kond+imKzlkksHbUpEY48+BxJQyLMTutCnkssUUQi7JZFXjcm8lrSewrGhWOxYIxx0x+BgcTQOBKuRCzSK5SJv7JyWRbvCK4aV0x+K4jrNGOCangba2KK8fJ9F+Rg0jrTEv6r//EACgRAAICAQQBAwUBAQEAAAAAAAECAAMRBBIhMRMgIjAQMkBBUXAzQv/aAAgBAgEBPwH/AHwDM2n5B3CPmAzD7REsbO0QaVLFyRH0BH2GPRYnY+HkfQ/KOBM7jNNTj3GKR9O4+mrfsS/SisZB9Wp1Hi4Ep1FrnMVsjPygfuM2Zp6M8mWW+PjEqtDjiFiOouf3GIUZM1FvlPqvryciVV7DgRevkWOc8SmkvBwNojBi009ZXuX2+/Cym/eJq78+0enIHct1SJxNgcblgrxDxN0zM/ABmMdvErQuZ7akhtO/dKdtvce9M+MQ6dy2Z/wWMcn010rYPdDpkRsQqyrhZStwPv6llmxsGZgP8gyZkTMz6MZh9sUZMRBWuYtnk9pg0RY5jL4K+ISScymwpXlozmw5h79PMDEdzerjEWktLKF3cx6sDiUhxwRGYKcZmznMPEBzMwQwcTlzKKtnJlvuXiAHMrbxV5aPYzN3Err27pbZ5DgQRu/XmKxXqb8/dGKOMCCkmW6YM3M+xJXaznBE6hTnMMT+wnM01H/ozUOAMSi0r7Y7Ig3RrVuXAi0MZc+xfGIBC2PizMxXZZvVvumxGHtniP8AJdpy55irsWLqAWxj6aerccmW6gVjAnnW/gxKFHuMvYniDKniO+xOe53yZ0J38uZmLawjFX7hqQrxDXKq2ZuZY/iXAj6jJxKh/JVlhzPEpjItRyYx3HM/Uz+Dumf5Et29xb0Mtq8nUOlKHMrBHUrU/uN7VzmW2eRvozfr8TMzA5E8me5U1eYNpXiai3J2iCMfygzj9/TOJ3B+UIYPzR/jP//EAEYQAAIBAgMFBAUJBgUCBwAAAAECAwARBBIhEyIxQVEjMlJhBRAUQnEgJDAzUGKBkdFAQ1OhscEVNGNy4aKyVICCkJLw8f/aAAgBAQAGPwL/ANhLzrj9vaj7T1Nq43rumtUNWvb7TvyrLHqa7Rqva1EKb1wrUVnQ54+YoMv2jsYzrzrzq7Gi0lxGeFGTxVdjYU0ib1GKUXBp4fdbUfQ9a6fYvlRNSSnmasurUHlBK9KVbWiWtdAKWFdEvWz7y+dZ0Wxpm5Jp6rnS1EbM5BzFbji/T7K09TDrUkCaMDRLg6cayBbAcq8+ZrYw93nQJ7/qyLrK2gFb2rtqa6CjFACVHG1bN0ysON6DYdTGvWh8nT7DsPkCeLvj+dWfcfoaDgWPlRSJ7k9a3haTnV2YVlgS48RraPvyHmfUViYLWur9aYEaXrZ3yv0FHNjCnTS1bCS0q+MUVzDN0+g4+vZrqluP7Vb5W8tbkrKK+u/lVnmP4ULjN/urT1bKMZ5OlJt4hs20zKaEebfOtq2mQZ+te0QPZ+YasrQBr+8ovQdtZGrPrHJ4lrsphMvhem9oh2OXnyoiHsoR71K6TOZL8zxpJJN24ua1mHxq6EMOo9ZW/wAT0pRhkzLe1zzpExfzd2F9avHIrjyP7PGcQ4TPwvQZZBY1um/0bbPR+VZnZttxLqaKOxlQNZFPFjTPPBtc3vqeFZo2MRPMjhTgxe0IptnSlTVHPutx+Rh8KNA/GgugsPzrObrCtKucoF6VstHNrAW41IzjKrm4X1EDvGmghe8XvN4qUL3r6UJMXcm2jVnErJ8DWWYCYDrxoCS8R86vFKr/AAP7JHMB9U9dlM6fA0Mz7VaAxAyHrXZTqT8a09fs2HO/7zeGlwyXmlAubms0vZ72WuPn8jNlF+vqWKLRW7z9BQSMXY6KvMmmxTYgpMePlRGhxF7ZuXxpNpJZ/vi16DO4VTzNLtBqODCgXZ5beI0EiwxEQ9+1dpiWv4Tu0+xi0X3iOPqLGnwsDnUdo4/pWUUF4LzahgUkM8UZ7zdaAtxNqSIKNoOJ9V1YqfI1YybUdHoDERmP7w1rsp0byv8AsM0J3nbgoo2FhXD1DYuwb7tK/pByWfVVPED1FVbKx50/s2/OeLczWHxeVkZe+x0vW0yAW7qUsmLa+JlrU2oxRnORxI4Vbn8gMVBI51s0l2X4cavPlyDw869nVQZW/wCmsNC+XcTcEnA1nneARc+Iq2148LirmrvGpPlQVRYCix4Ctinffl4R1q+bealjTUsa9hwxG1I7SQcq45pDy51tHN5W7q9Ku/E/JupI+FaTbQdH1q2KiyfeTWhsp1J8J0P0ueQ757q0+ImmXYuNalmghL4cHpVmXJehDhozPc+5SYvGLvJwjPWrVkUgzNwqERYkzu53l5UkOrytyXlVpEDfGhIi6qNB0o7UoX5ZRwoxSfOncXQLy/CkRAyzScAO8TQXWfHS1FCzK+YXYAd35XaRq/xFRlH2Mkfda1YdspnjTvovOrqksMXFtr/aknedoWC5VHl8KALZj1PqY3191eprayEs7czS2N83IVwzY6Ybv3RRlkN5H60cXP3R3FPOts2oqzC1aGiFNjQzG5rJz+QCDa1IskxkgHX6MqzGSTwpTSTYaRul2p4sGSOZifjUmDfDq6edLEo1kbQCmtvTyd4+rLfWnaQ7Z3Openjgi9mjHvkWqSdrER7oPU0Xc2Uc6Dr3TQiLgSHULV7a17RxltbXlWJmAV9p3XJ4VnM8gxHORDTxJPDiJBwDaMKmgxBf2nvbeN+VZiqKE0GZsxaotsdnI4uV42rNG4deoPyAHRXtrvC/rkZnsFGvn5VJI53F7q+VbV+HKjjcSt/4SHmalxMurnl08qYynLh4u8f7V83W0UfAUM0TAdbVvivDWhvV8htXn8gIKVFFLn4/QytH3+Aos4zczWHGEfNI9K7aBdb0J4nyu2tbbIpxbcW6Dy9WY6k6BetHEz/XNy8Iq2bXpWaZgq8NaGxy5Pu0blNhbhbWiAjuw1UI1taEjTBy3fzjX8DWzgxD7FfrCDoPKvZIEBZV1LnQVOjx5TGbZl7p9TYiOZ4mfvZedOcNAzxt3nvmY1AWErST6CSUdzz1obOfbq2szNqAK27R7OKPVEGmtKl1YvqVI7gqSBFZjHxe278hmdgoA4nlRjiJWFOHn50GN1j/AK0Z59zAwcfOmxDJsolFo16ChhMM2VffPSkwGEHYjievnSYPDKHEZu58RpX9mCQocrg6gfCmn2dranJV8Hi0Y+BtDV3jNvLhW17TNa2S+7RPX12HGto9B+X0W8L+VOiybM8DmFGbbGUrraMVHFDHsMIG16mkabTNqo8vWs6zFZF4A6im4GW9rxjlSbJWGXUzPyqGaWJnibdjj6+dSSyssAcbsK/1rNG4ceXqdIpst9M68qMOCG915+dJs8O8Lrq8raac6aaJo8LhlG7dbk1HPibPN+5jA/6jUOTFe1sx3kPL8fUNqge3C9KEbZBeCgaE+dWWPadD/c1HBA59r4yS3sFHnSR+jpC5XvLlBBPUml2+USc8nD1XP4U0ET3w6nUj3jQSMae8aGFhvs11d+QFLh4N3Awmyr4z1r2ZJ1SboeBr2GE7TEyHtHH9K2EX+emG+R7orNxPE0k2HkbYYg2yLTzv3VS+UnW9FluKWJpjs76hhmpHgAaVtLx6H8Ryplw+IXONNnJumu0hIHUeoORpS2GgoKPoXw5feWjspATRvG2vHLRVcNISeoraFBHzrM8CywdV6UFJMTdHq4N/XlkXOvGxqKYPbZDRLaUdusm0OglVrgVkh7dz3n5Xoy4py/SNdAf1ou+KeDEnhEugUfCngY+1zjWyC1h507NaNRuuJaUx6Jxyg3U00rrHimfTOdLD4ViVlJSDNvWFs58IqODDy77aup1EY+QVkUMD1q8TyKn8LNu+ok8KbA4b65hZz4R0rZqLt1pMJBvTP3j0o+jcD3f38vi8qRFsCeQ40Z5tcfP3V/hilx0imbGzaQxWuSaczqwmvvKw1FRCcdncZvhRw2AkT2eWS8Sk6L5VKpfMSxvbhQLcTSkctahw3IJel9J4bdk/eAc6sspsOR1pPm6xvfinvUqKPyoab3P6Bnc5UUXJNbPBOYoEPHxU7vIk2Kl1Ouormv8AsrtLSD72hrKezbzqRcIyrlFy7cKjkLhmGhq7w73iFZsDiSvkati8NnXxrpWXahH6Np8iw4UJ3csFG7HyFLMiDNmtnIvlFQ4rBvmlP1tuFqjWOHJhS+6qi2duppWknbT3I91RRVe1k8KUntBiD+EkNY05iULnNz5/L2WHObEt3R4fM1dSXnY3LmrjenfQChFGb+kp9XP8NauTdjrf+9f4lirlR9Sjcz1qT0t6RPYRm9j7x6UcUcPHNfdUP7g8jyo4kDtEGi/d6UUYZGHKuO75VeMlk6sNaFPfVr2tUUiqRl4tUuEy7TbrZfKuFbQi39qDtqx6/Q+xYclYwLvbnSQzOIo/eY0P8PxkmHm4bRTpSjFRw47aDdk4GsuOhaB+eUXFSO8M4wY0jKtqKiwXoxXOH59XNGN1aIzcM4pVxOGEijiV0pdjLs3b3XFqObe/CiWjyseYonB4ktpojGrY3DNYe+i1aOXe45W0PyNm9wt77ptWFeMZlgN9nwrtGyL4E/WkwGGtGW7x6CvY4VU83bpQkD+zRKll0uTUe0TbTu1lC6XHWhHtF2h92/yHbieCjxNTzTNnkfvU08ndHAUMdiQXxkv+Wi6feNNPibmRjmY341JNO+T0fCd49fKsx7HBwfkq0kEAyYODdROvnQILLlR30+FPDM2aS/HyP/5WgsS1j50DR/xByFXurbdPxqTEejTnjXin6VtIWs3lVpHe3QG1LmJLcqzvwH86EsnAH8/ogkW9Ios5q4OtbRDvDeAozYl8z/0pMNnEY4sx6VlwvpHtOWbUUjYmHaW4EcG+FAMHiK8BW61KVbKRWx2gzcmIvXzuJX+9HoaCQyb59xtDRUrWexhbhdDR9mm9ojHBCeP51lxmEeEjiRrauylViOK8/kCR13xzBtUa4VVFnzMvipfabRR3sI15msMGbel4r4RVkUD1s7MF8+lFy2nBR0FCViNmONHH4kAYODuRk/WGji5zlLcL8EFSYaFimFj+slPIUno3AJkwkf8APzNHC+jYJXwcR7fEhdC1EgXHGsfFPJsWeLIpI6mgmAdmPDacOh/qK2szsx8zWQVJs/3dtTzosbAK1nUai3Wo8ThlCxTchyNZrUHb8TW1b6tdFHM+VZ3O9nOnTy+hKwNllfnW8CfOsz9eFFALG1NEWElvDSujZSKE+fPbeCGjPiHuTwHJRQiw67U8SOlXkgZB5aiuormKsq7UfzpXKvEVN6OWRJJuANqUYyLe5tHQ2UuvThWWVFYUTA2yk43X9KOwmGLj5I2pFbPGwSYZutq7GVZPgfkJMRvrwPrLuQPjWRSdgp0/Wso06k0Y0OywUIvJJ1qFQmTCR7sMI/rT+j5MQsT/ALsj+tJ6IwB2tz2jji7V7Bh7NjJf8xIOX3aGFKpFGLIJo90rp/wad9iRCWOtXW4NWa7WqwFhTsaljfQumlM64iJoJV3rHhUWCwr7RIe8/Wl5VkRuyTVmrjaFdI1/vU6eF/oc9d2r5dfKj7PJnW3BqdpAQx11raSdwHhWVDy4GjDIVJ+6b1tFlaOYdOdLJI23iy3y9ad1ChCe50rJsnzeQvSsmHkLDgSCKWP0ngzh3/iILj8aLej545AejaiuF+mtJtFdGQ0WcpI46Gh7RBx9+OgYJ1Y+HnWSVFkB5ML0ZMLI+Fl4jKdKu2TGwjp3qtOGwknhkFZopFkXqp9ZNNhIW3R3/wBKCqtzSYPD6MfrH6Uno/DG2FjO+4980Y4RvMNmCOJoo4D+kZ9XP8MdKONlF/SEw7JT7g61mLFpGOt6TvZjMTdTzAsL/wA6ZsilLZtmmlMiG630PqKTkyYuTTIeX+2mw8ukT92Rv5UWVSRyKmlYfW/eNb3LpWxj7zcfKvYINZG+sYUtYqPyDfQ2PCrpr5GtYyvnWozCt/S/Ws0DZG8qZcokW3GiWvc9aBe+xvragmHvItrCnw2IGWZOIoSRuVbhQkxD547Zgq8aZwMsfuDypNjfaX3cnGvnEK42Mc5FufzrJiYfYZDzbVa2uBmSdDwZDcUcyG3lQDoyNe+anaZUmCjQq1qRZ48jNpu1uzJm6XrLLGkq/eFNJg8VJhZTrl4igJsP7fD/ABI+NSAB450teJhrWxiJGKk4DwLXMsaWOJc+Jk3dKHo7D646X/NSj3F8NZiO4NPjR9L41byyaYWFv+6m9MY/NIubs0P716lONRkkPuEWtQ6g16D9lyvlLmYA9TfWpIC8eJ1Zd3p7v96MpFhxqy6DiamlMZzrZMtEIy+0Qk5T/amhlFmU5Spqy6k0pPFuFbKNs2JfV2Hu1JmNzmOtR/CpsU2kZGUef0dquOzbyqxQSp4l41zuPzonZ5lorLCB5V83kMYpkaLPpoy6UzyXLk3N6BJKx31NFFfPuWFqMcimNl0IqOYMLg23lvpS7RE2dr3NEwRqIRwa3erPh5nik8UbWpf8Qwi4yHmWWx/Ot75m7e5LoPz4VtMM+0U9Na7nCryM6SjjekW+2Qc77wrLNCUt3XBzV83xMb291jrWHxUPZuk2rLzppr586q1/iK1uZX4Uptf0tiBuL/BXr8akZzn5s/Nz0qXGYvd9H4c3t/FbpT4rE2jwUWrHkq9BUEmCiQQQrkjiZdAP18634hDNHqove3486KYiK3narwtfyoNkzGrNZBUYmcHDreSa3eIHKknwu4uKxbMCumlv+KBaSOZ4isc+Q3HDrzqV1sQTSuy7vO1PPN0sgpvE3Gn6GkUC0S996SKMZUUWH03aRq1H2Z7fdf8AWs8qN/arMlxytXC1HswbnvV82k045GphPhmV7aOlPLISXY8aAU5QOLHgKjw5batax2dMpORxyqB3iSQBve4UdpBHz1ygVbCxra92deB8qzYad4h0B3fypR6T9HJOh/eIuQ1aCbYTHgk2lFo5D+FN2ea3Su1cqRyNS4e+ZwQcxNzUUsnBY8v5aV/ieLUs5/y0J949alxWJ7SZt5i3Kmhj7KFB28nICosFgly4WPRB/VjS+isEbYWPWR/4jVjZRo2XZr+OlewztdCpynmLUZ8irbXOOdWWooZ5smOm3mbLcxpW5h0xhtc7M2b8Dzr5pjThpf4eJFv+qlwmKgL4ZNVkjX+4plU2WTVtaDc+tXZ9lEP6da3SRAoyov8Af1K8+bMptdTSQYdcqD+f7FfLkPVKbe2vxrKFy/7haicuvQ61Yi1vKiUFj90U2zCzR+BhxrNJhPZ5Bzy3FPiOF6CJvNSxFcsmXU0wHFTYg0hkjzKDqBzp4ThFK8BmpVw6lZW1sDwrLDiX2X8KTeW3woL6R9H5f9TD/oazYbGoJPC2jiiuHDYmJvDrW29LFYsLDd2RWuSelHGvuootBF4RS+jsMBt5m0y8h1ND0P6PIsN7E4g8Cf0po/Rk0eJnlNpZVO9boK31K35NTZteVutYbFwSlcQLZkUaDSosNmbZR6a1/iGKUbRvqIj161Pj0bavHGxzHm3Cg0qpHIALheBq1ik5G7IvP/mnymRYA5Ckm4NdrhY1kzfWILE0EP1h0JFGGAkRx8T4qjP4eo5tM2tqU+X7JZgGHnXZloj93hRIj2g6p+lNlfLJ0NZZox8Rzorl06EUTFdPhRvBtl6jjSJOzR5eT86klw8KQRDQKnPzNWAzeVEtHlZtcpqUHxVbgKjhku6svebSmnikeEXsFPWrR4uQi3Asa+cfVqb6c/jQjKnaObgDj8BQiTtfTGL75H7telH0RhDmnfXEzD/tosJA+MPucybUzy77OdRW1ncYZst9wcKEkTriY/8ARtmppsUhhwsAu5YcfKpMQezw6DIi8lFDDQWleciTMuptc6f0pC+7wutYueXgrWRTzNZpD50GC3mfRPKlw6tfEON9j7oqRRzWl+NDF4pTs/cXxVYaUn7P2kYbz512MtwOCyfrWV42iPjGorNm3h51ewJHQ1vIPjWaJiPutWefDs48S8qVXe3KzaGj7EjKeLknjVn49aeRosyhbC9NnLMnIPQF7LUbg94Xt0r/ABXG7+IfTCxHW3nTzY3EKvpPEC6gtvKOtSTGS7Ek536frRkCEqvOkZGuQdM1RxSqsfVU51JjMI3dGcgNbSnjx0aS4VBd3bS1MsEz4M30EouprNhzt4hqHi3gKWLEovtAYD2g8fxpYYpRKsR3TH3T51mfhxPma9sn73uLTSyNd2a5oUk7o7sTmsW0pVUWUaAUw86t0/as2XZN4o9KJjG2HHd3Wpw7shNt2RbVldfK/KljAvmFEquV6uB+dfOQyoPKkhzRsF4dajmhlY4htNkF0tQzi3W9e24qVfYIxpGHuzdKb01jwOmFw9N6Uxe/JIbrehh4tIk/nVuNGXFQ7ORtQY921FSztgs1tval9GYC7wNxe26f+KT0T6P1Qd8jTM1NC+Jmacc40ut6Z8EJrA6lRasnpLAxzN4rZXpngRo4f9Q6rW0fdhTlS8RAqdmtOPOkRBdqRfD6m/OiP2zK6hh0IrKu6Oh1FGxLjysbfhW4SJAOFquy8O9RzIL8yorPC/8A8a7TPNyF+Nb2h6Wpppv8pCMz25+VHL2cMY7OPoKlwwYqyCwIrfoyFwcvdvXsMP1vB/KgcHiTE44q3dNP6PxEMbTqfd+FRy+zhcTIvaIH7orZYJZEdjq853QKjeXGTSRjULh9Fp8Rlsg0UUsMZ3Rq7V7PDpCnTmaif8KMai7NwFM772KbVm8Pl6gaDjhQJ5/t9nQNXZPbyfWnllRsp5odP/vxpRhztIzxNuFdsFtzIF6zKq/C1qZsHM8PMpxBr5/gAsn/AIjD6Gs2CxaYn/Sl3WqzxPF0Bo5onQGnfKTfWmfTbPoq1J6XxYMsjt2Yf3m60+1w9sadEKc628ipEnS+tbBWbZ+8L0sKJ2r8ulR4CBg2JfWQ/wB/VLhMRfIRe68a9ojDyzjg0hvanHlVqWtfsPNlySeNNDV1ZZvjo1ZJYRG3JiLH9KO9Yj3DzrIUyuOR40SP0rJmEiD3ZhcVbEL7Pbmu8KeTAS4f0lC3Fb5Wqb0h6VRoIU1y8PwpgqxmD3Y2W9q2mOJha+mzFhSRxyrJDbs1Q8KV9M5OnnUmIbtZOA8zRxBBDtq12v6tqNI0Gp86ajX40PsbKwDDoaJjJhPQar+VHLGky/dP9jWQo3/r4irqtyOlG62NZ4Hyv5aUsc0jPGOtbykVpWveNEyAs0Y3VqRsRE0cHuRtpauhqCCLmLs3JR1r2eAZUXrzr8PV8TcUPsmzKG+NZhut+dZSu1873ojJdb93pQQplJ86KstuhoNbhWpsOdM7DfI0vyoLIiuOWYU0+2aHONVRRahHhrnNqzv3jSnypT6tR9m2dQ1ZoXsR7r6isssOVfEuopWDZhTtbdXgPUzjVRrQZelrVGaQ0B5/aQZOzJ5rQGv4+ojrSiM2a9taZPCauBcitRa32khqMjr638mp+lvtRl60Gcg+tz1ofD7Yz/hWb7Z00/8AOv8A/8QALBABAAICAgEDAwQDAQEBAQAAAQARITFBUWFxgZEQobHB0eHwMEBQ8SCAkP/aAAgBAQABPyH/APgkRhRtU3rcZvE0D/1KPmIrfocn0fJOas6mQPdIUU/9DMy4WcIJUj2JccJ7QJ0PSXRb0wRw2QQII3Kdk1L/AMw7GJa1Q9Jn3LQo+I4IpywSSJ4kNw+sumDbGy9TqVX0FGYOkF0WbQuCbxAPP/HUFssPXEJ5DhxKIZe2beODuF3hhyw6ClY9JTR5IOR+KhMpbFdZ1FHX1cwRhrc8pti5sCE7jQP/AA1otlrGk8JFzIC1XONBoja+Npye2iK2gcSF2mG2YNQ6M8odxZQY+pcmmSsLrUqqY5HkzEwZZqGY43H4TFZHKqpvMkObE0Lf+/qWK0l3PEKNJb76nK7F3EIzaOUJXvmHErhHLAgvtAxADjjgu5G2WLdE2ZCcvEtkFVcMOKaGJUnKGWUzSe/AhmI1kyzuA0myFNDCpnHUF2QOX+5tEH6CBjWwjwSGJ1x0ytRs3ghHkTGBLJuTUSzvI4JUvjm7lPNm4G1OPxUZaaMDccbXbBAdzwDA0cdpeZXF2so20QC7vEpKxjEcN5idGbijzE5tTWpV+f8AtVKQee/oYXAh2LmMS9z4vHJHjwg1Q8KlsRnqhCgB9BOy+0lZJNhTAwKKc6mKRPXMpNtsFkr5sdNABULyanv/ABzAsD0GZnYhd3L0jXuCrmDXFKweyXVKqMxFHyxLfHpMSsuBZmC8iFtoQr+Qk900KMGJBT55pf8ArDAHShZTkuWMRM5vKhriD6i4E1ATSnaGu70BuUwLLXY9IlRPNpit4LMr2Sv6+Y/tN1GoqU19MjJiL0std5xMZnJWbSjaHPXj1jL4NpC26hsrzKNQL4IlxGMWPHmV2l37y0K1W6YjZwOKvEa8KwRI6Va+UoA/1Er55Zf6bW45PRl9ROMEHqDhjj7QYehbS1KyCah7Ma+ErT4GHmPMswubZWAFShzX13LzYOqZI6IPN2r4INw0QVkFaQTwgqNsAYEXSthclHzRQm49LvbSTi1AR46DLHsRke6akAGUrV9EqMGePWY3I6pLgDiJ3H7MudZQuHxFGOdAK/oHtxwgAQ+T7xEvzgQQWXhR+IB/0An47sYiDmtTBYoWcVFV+0C3PzUCUQ1KXUo3qUD2Ez2MJx4D+zUHXKunF+k2NVHjxL0Q7WIc0Xj7zNsULqDZGV4mmkSMkf1S2mXolr+zNGX8AadsLmm7inPmNflJo9IGIFVgC+spUC6qI+SBUAnrARAa2M3KzoDn9QxVzbCDRhJ6xyQ9Qyg9U/8AU6jm5rLdXm+iy8TkIBanKqUgozVifJp8SuPeT7DC0v8AxvS6+5jJzKrk8EWkQC4Sn/zEawXYWy5yF8fswAGCa8hHXlh21uwHMR1oFf3QIBMgbqM4KjOF3CIyc8AmTKMFWCiS7dQnVg25uvV4IR/xPp6wph9qglLL/wDguveCFb7sL46mu2MW3e4aAdycD4buJGyGXh2oz4yncxaJURTF3vehM2Ct5WfdWiaPwCs9kz4sryYU/I9nFNLOOglH3Kd4S3EaYTd2/Ssw+gYxkC0RmGVKZr7wiRscj/iTHHFdT4a+z0gY88Q8MYw70yRreCG6igMK3YdQvojAgCJn2YK8dStF6OU9DqViWfm7mbvFVHHvKNVDWD2EnBuFwvscCrA8ENB0NH9IG7mzSX7R1FwgrXtCYaA1F9PEeb3UftSpYqxCKv3U4+tlS/qQIVDAZh9CBc0ynQ8whvCaLYCOo6GrNUvQlzbH8EV5li16IlNK1ATHYcamVQX1lERtN8hC++KluqjNfRuzOLnM9DkJxVNf4cZ9LDjzBllMu/WGURkH5uUQ30XipX62KczE1KpvwQFTpyltdRyd6ePRCxi7s5lgLcucbuvhjX2j1ZGa05ngN+6HewpaMasgSSpRHidsQDOaToPMPgXav0YoVqGV4AgpYBK87p9455NSrHTAlrqWF5jPfUqqbT+TkO8X6wGcEj6h+twoACezq73/APFwVC2B3FU2lsep5YQAFZ/JnNiH36lA+A+P34ugw8DlWUxtFz5UKU3KPEvUrjy5wPVySoiRQqa7JcdgMAFO5FqUML/xyMyUrX1URtShXPfcV3AzfcCj/BYMAVYTMgcZRySrgCjX8wmt1b7zBne9Thf1IaZRA/ab8RWcc2u4qIulR8rdxvYWmldiZJ1VeOxGQi0r0xaLces5OnHbcxiWZYczl6y5DDUhm3cy7RcB5fWY2pxZ4IKHyxO98JomFu7p1KANabqPapQ3ZoKpfa11BicBc0WHmy2G5eetSxDxVvoyktwPMaNwbO30Cdm4rh8y2idt7TNYFTFG1EYxyLl/iB/49uhNR/DVG1NObuX9LyEa3Z8Ux6dtjNK+Yq6reI34waBziYsGswwPFLbe9T221Z8xPo+wow3sQr6D/AbLgJ2MHoiimMIxtYrI3cBwx9JMOktsZh9dabL2uLjeNBfrKch2S/pR9YeQTflRtnDCPa0F9lghG1F20+Wf2gME5KOCt+6LCvPqNHBiN8WfoW1cWdOwALxTxmNsVa5q01+02GoH7JF0QdU3KsgaCHpumbpzOPpU2jeBD3ryfCGoqVCWcqm21uPl56JkysP6IDPsLyltxpzrowdoT7UjEaH9nmEgvTsHNS1v2CT0jN1lYwwKIssW8rwRWVAve+AxFhMo5jFrS3Gppxe31ix4QRXqmd7BrRXpbOL4TM88naCOCP8AALPwABLrjAcK7Ymcr23rQKB1s3urxjRDVKGoDIKtXouWgQ57P7mHroOmNGa5zSyDDf8AUS2PchABGx5JcSESx2MEgoYCBOUMZe47TU88b8yqDi7cGV66nCe9H9DHE4gyvYHkgsoeZPXggbe7+eUWQLs5dy//AJAWtHmdWjDA5/Sl/YQtpMI8dXV/rB18bZlao9Yk1Nl+8HcdZ735VHpPbhGY1cG5v3jUAK52B6Hebi6F5imLZw8w3VDTr1g48ahbBb9AzEqpWgl9l0l1PHAOSAF4lFxz1MpK/wDtmHpH5eCW2hvRojBoi+nzcuLBdwdkVKWchmdQa09ypfCle9ncryF+I8WwJt6y6pVZq/1mWgOjh+8qb2cb7/ERmMKA+I1h5uhfmlr7xoFcwED3l/V+SbDMhb8ONks064g93HN+f2S1otn8HrX9zCuCaNfzYYmmEkCrb9ITJUhbv/eUM9wP/i8nDd8B6dxsDLT+IaIE96bo7rAa7lmPe+onJncFdGLcG4wD9WJkwlj1pmhM871fi0iCHDZy2V90e5L3dimuYx2W5UcxcrXsRuu1t477kbll2iD0NNy4EFWbqCzvIeUEjshxAoo/wLAvFA9ekw3dYES3oyXxicaaDQegheRyZjl6xky+Ky31IM6hEYO1UyYXQtWLbMGptDoqK066ZMUfp/EMJMahySpNrI5h1egT7anADuT7nT28xGSBsBe4Y3mApzkUfZm1fSpib1XlXTMzNg59zMnhD1vF/fEUe67B0B6XDxU+fn60eUy/6zFzUvPqQMC+qovgKqsmjxKJlUV6H4nixdB/8iyh+dA5eZXQOtcX1/Ef1ZlUGw7dEoX8QLwFLYX5hvmWqPlmEnybZSajJ/T1KLBncjhLbh2ej9Mz4VBKuCX6R4jN0wXbwPWULcPo4oQ/wH6uB0IRVG7pm5j/AIpdzLOVXxPKjOEB3Zq4ViDwFnc050PsAmDMK2gd3C+ML0PWImzugqeymoBScVYjOaoqs+sLrkt1T2jPRUYOe0uUIBS3lF2yscie5iY/JNmvVe8aDgUvYW/rzCwypfDHNbjJr9mY9pf0qWMzS7X1BaBdrR3FwtgOnG0BZV3kB8y9HJOv/bOhYSh4t+ZdXuXlenj16jBaDtruami8L0g1vGFlOsi1kxGNQJbu4Hfyg4gqB5l6lSIOou2R+0Y+2VxpKfOZQAa5LnDtzbVD8RmSm8/mIOL0jCy428M+r1zPFS/J/H+FDtZVV1LCN3yRjg9llvC6NpHjRolBQZlssdZ7UeFoPWPtAViA6nEO9pb8IhsyHh1B1DlZ+MXplgv4lDjw2jyN/mUTQqr4Ik0uwLfSMAWZvfmV2MBqX1IOKOew8WfzNBmZV8GeAminOzx5em/iNaR82X2c/mA53q/+08JAD9RV4l1Fsh3+w+8s8WMQQL98YhbMvvv1lW9rJ6oc+IGQmOVdDzDiP985xbni8rjd+SiBxpUbtyAAzlr5uP5Pc4czKBXohWCdVHD9mX7ERkWu8nDWftFVMSliqYtZFrhgvFNu3gmXMQI4dS7NseMdQVdkTyvuK/wpjtRRSvZURyRyhopZszE1NYE2ONg291kZId6S+0xfDJGWYorLDNqy+MTcXOun+3OjcEg83zHBixynlBRX5En2QEQqmjHpz8xavgWb1D9JdCmJgarPPSBSOlF6CynxcSjyC6ePzAjUbrH4lvY6Gc8vDJ45LgpgPaD039ppgiyzoIhhHBh7vV/Ermpl7jLkgDq+DzLW79DxU/v5i0t14aR+f19JkYDIIdvzNgRCymq8QvX9+ngB4iamLw+P3jbAVLZrezMTKULqO69f1R81fCP8QLOgliBCGLcKPoEFZzyVdFr1oz+88F/0Yurd2cEzuFifmGAA6A/vMjBuUtHMBE525Xf+MmQI8MshU51+I7CNaXtMeeElRgJGrWsywsdLl5uN0ZIwzNwktjFybh6Bo3KhQ7Jx1OGcFm4rOHkVvEoOZOdDwS8QoVHyeYeXmrSYHPa016CvkmSzWIH0P5VGM+iqlXs7jBtyxhPaeTgHJfB3NMBUkpdJHltYIH9ucuVdWvpuaoRiYVz3/MvzdzbS/rFaAAHUrTyAe4hgoq87Wj1+3kjUYUODAP7+YmoorBtSeFIY986VeyYrNbH8pCsHdVhETlbiXEhwF3APMCojkAIobAXdOrlEgi9yAery49YKcgItqpjJ2SuYAVyVR76giiMkbzg/vmB5no8y/peRStVSCfEVQjRgOvWHRog/zE15lMnvKzA8dwewOLu6epHLWwhMgsPFIx5UZKVB5asCsgE+xeFqXx1KYKdGTXqRnYLEx5m8mcjecEpijo5XjjqYd+FRFfd94ZqOh2cP3nMx3OeujK165Cd02P2mdL1Sd9F4uIqFcFi5g974g0JWNgzDf/ZN/wDnxMh5kvsfpHzzoWeH0EBLKd9hEAMqvll94jzeqCiAjWIMPY+JcWrE2WMPa5TNqAWmXvgce0vCoAmBYWfJ8+JfytfeYOn7NQdv29oAMydsdjt4mOFvje6GPtCrBpjX6OeYhs1Dk133/cwcXdvwOWLBBz1Xl+0Y3stcdp0XDGKMBeZTnO3a7f8ARQlJOf8A3o+2oFWpdGCTA49ZH6S92vBhFKfKZGfEoaeVyfzM/Q5hWVZ1Lvz/AHEAIkBoNHiXBo0TT/HFcFd5AXKQ2qq214mokPkBeVxrqp1sXYeY7iesn6mtcQ0dsWY6/syzdC/wxh/DrX0ckoNoRC17pWuwzWnF8tzKrMPPYfJ8vUZC405VvSAuYofgv1iS/wAKKblWG5f5UM3+pJoue3n1iLcqa64qXuMHLHPwRdRSN/4cHpBOCWwKz+8z0IhD3/qZVm9IFtCavHUqi8N7w0N+sOwt6bmvtBhD6iz7Q/MRcXHy0/1Wx20bBZBmxcL8H9JzKTan9dSu9Rbj5Sod8XAkMrTVJqAjm4X9pWwvjiwfxcQOrjXEqP5CwvmMFLiWenWqhBW2amfW2GoIBRAtb4LzDxTmPKv1hGpFhje7uASrRgcu03gqKRH2B4KXS7Cuz7H8Q1veZ/Yf3mWJW9KfHJc2rWhYvGI8t8M/pq/PEUk+QKcDcxAcafHcyUpSyBAhhXRaB0fVjzGHxp0f24Cyu6nwfMSubbPE0PIH3y+PzY+vLEJ7QIHHyZwwQdvLt8SjYA1LF4/1zc37B77jy9oHdPgRnw1kfclxcDkL37w45gTfeWxHqLuIXxkx8xIB6WxdzzmS+JmN+20ToDwecwhThk2h6qiVNvJ3zGPfuFg/aXT7U8R0KrWlDZ/f5lLqf3M/v5jIRhh3DzLtWKPoF90V9ltQr7w3oSMi5UgiraF2xg1ZXQlr9tSjPB+Cx83H91fdFxObId6wrMDIasgvNavze8TkfcCO/KMDgdGILgBCFvwfbfmX+sgbUupZLEoQKYtDQT17ywdn+y2JRS9UQw62w83da7iBSRjvn9JRrrwf1X3g7TmKrrljGQzhpJeS82IYcvJeUQDXDvqVKDoDfat7v+lTRitcEpAbV8TRP0lCNuaU0+h/MElpngd/tG22Mo7/ALR3Zg8MLPkHbz6feGExpyrzV16xPccWJ4eRiFXXPnK3omvA0HigZZY24R04SVgTDj/clOICFnqf3mYaXckzXL94M3Rk9W33qW7NWjAkaoibO2pn6J5dQ68i/wDbqJEftEdI+nXz+jDULcZg8I/ERFEtD+8F9ZOFZPLzAQTWkrw/zLXzLw+0OW0FpsE4ruVKlvp3tXhKcBct18EQWNvfiVdc9zBLNMLZSN3IfZBHBku/k/iUg2LViIePDCxmPq2e0MB31LLs1mC9fU0PluCnlL13MgD0rA9/xMA2UkD0t4U/33lNKAG3OoS4MoXTp+st/bM8rAxWdWI24f7yp4ghTJ6PENm7wVPS9n3lRLYhFaYR0AGj7M/iNSmKoXuRDlnLhZGWwfCi95V8shLW5GXt8eY0WrhY9Birz3W5ZSUy4jJU/wDf8RAVnKszaBpNA8caSZCVioV+CZX3VOEC3rpw8ym8PJL5foTnuu40FGdBHi/WI8Mx/ZACeq+X3PM5W6qCaAnmAKCj/g1Equf0NPvcCxjVT5tfj0iC84ZZ9btKmGH+QXHqQ4OqRNUO7pUUj+bU3LtqVN4eai2q1+x/mb0GMQHBIoqcVwGpgBChqQG2pYA7fMMxFUPKZB7UVZoJdVeCz8YKKisVp1KRqxxK4PzBBPEpnZU+ZE95f8Zck7CyWo7/ANR+kzBO8T68D6MvI9F0P5Pi4CR2lxx8pbW/iOHnOSNaQRyl3kfEJsrvFEGrrY1gIK49Wax+WUuvi2H89+kRBEOyoGbxG+WoTeEU5K5WWp9FGDmJQud/8mmI6Fy4r5sD9fvF/wAna98wrlVlf/ie9ckhKEeDEHtladQWpmXDuF3YP3gIXkW08SprBzJrFw9q5TK+U4LaIgDmavjJ9KGhruVX/MVgKrMMeKg+5s+8ul/z1fEBQEyR7Cq07/uY2B0yr7AHiFhtg7Aqe4JKTq/6KofmM4ZZtWOVdv0tfQSNDBd4TmVyzL0bqPlrOf8ApemGPoB9a6ctRIHIP0HQr/pErWGHqJQQ47+qg4qMRS7r/wBjA4Baew4/7ACkE8w2gDeP/wBr/wD/2gAMAwEAAgADAAAAEPPPPPPPPPPPPPPPPPPPPPPPPPPPPPPPPPPPPPPPPPPPPPPPPPPPPPPPPPPPPPPPPPPPPPPPPPPPPPPPPPPPPPPPPPPPPPPPPPPPPPPPPPPPPPPPPPPPPPPPPPPPPMVUNPPPPPPPPPPPPPPPPPPPPPPPPPEEvphXNPPPPPPPPPPPPPPPPPPPPPOjPLheAA0/9PPPPPPPPPPPPPPPPOIMAuF3nhuJ1RrRcPPPPPPPPPPPPOBrNjMvxt+ycaXzVYzYdPPPPPPPPPEKamk64nx8rNZyKfOb5SgT3PPPPPOlpTGlsxXNLg8+QL9rNVM2641PPPJFtbi2JLmNhLiKvGtU6nkj4uuNfPOMx+x6pvErlnIJtivkaCiAMCsEXPPJp/Lf6SkqrhEEHKKR7BkO5yOBLPPKPVnkwPmiNLMPlAg6n4vuObL9FPPPKLM9YhzJESkrmh1VoceYMK5BedPPPPPGjMZY61NwkEOgijJZIHq+LORfPPPPPPDRvm+BJS/6hNKgFulePHwfPPPPPPPPPLLc3EzJwirOgaoKD0PL/PPPPPPPPPPPPPCaZj06hamhWScdOHPPPPPPPPPPPPPPPHAXQiMljNPY7PPPPPPPPPPPPPPPPPPPPDL1umyCAjPPPPPPPPPPPPPPPPPPPPPPLLohS7PPPPPPPPPPPPPPPPPPPPPPPPLBFvPPPPPPPPPPPPPPPPPPPPPPPPPPPLPPPPPPPPPPPPPPPPPPPPPPPPPPPPPPPPPPPPPPPPPPPPPPPPPPPPPPPPPPPPPPPPPPPPPPPPPPPPPPPPPPPPPPPPPPPPPPPPPPPPPPPPPPPPPPPPPPPPPPPPPPPPP/xAAiEQEBAQEAAgIDAAMBAAAAAAABABEhEDEgMEBBUVBgYXD/2gAIAQMBAT8Q/wB93/Ab+Wp8Ntt/IbfG+dtt/OC8KO+vreGxueXkO+Mss+OTwgqSmIzQjHPF4I+voY8uDI15z5ZZ4XDZXkAdlTQnwRYXzGAFvpAZk4cs+w3hDWsZTnVMuwVyxuEC8WVzscPgg54mbsuv2POJ91gFvR6n2QcESLNQLCPNfhr9XDTvhO3kdPDPpy7GvYdo9714A4YzQ+2Y4YSxwsg+J8M5jloG1OT9WsQcgP1Z8ly3dwmT+bI6WHE7Z8Bx4elkXPxaO5YzDkbw7JXSBpSOnkDoyDS54yFkyyy9dZ65GHbdAqLjW/nMfQ7crOP2NkenyQ38IB0lIl31BS8REi6Rr1c8bS16Q/aEphbG39oNJtofEiZUepZBh9GSWaz3ZupLBGesBpabHWzoY2K3sxq9yUl9PAXto/4MR5fvIM+xBk3DwPXOkI6ZYtW0I2qepgTNjf0iCIsCMwRjs/ehhZD+p04390eRPUVhH7iNEudHRCn8NNtY39S5RmS0WTDtl3+QlkXQSysLM/Kzwf8Am/8A/8QAIhEBAQEBAAICAwADAQAAAAAAAQARITFBECAwQFFhcKHx/9oACAECAQE/EP8ATetv7Lb9Rmyz9Y+dt+Nt/T34y8fg35eom5z8hHDIdnkO/D8ZZ8H10ZZws4eRLE/4vbF5Gu/gNByzSBPyfOWWXj495A2ZWJCsZxhbnifSK9l4Rvs49t13m2GpdbLLPjfjbbfnB1IsLf67WDRbaY3nbG+Uo9E/PwfXObbfaZA8wAH4AssnhDXsYxMb6j1ul2UKvhIBMy6Z5Je+fo9Ck/eCm42Tvm0uR3jBbENln125AMfDwGFwLMREFcmaA0sW3yzafVPvzOEbZGz+WXWwNKC9kZ7hH9r/AAgN5svFpYWuJO0T94G8bJHkX9NtvWWJM1HPqHXGE42eXy9lN4diXMxLSAbBMI55P6XHJPuW8LB1+ARtunjc4JNCVrwsPL+TenId+8KWHzKasgrjbwUblhbbzJHANS5XTntl4RtBsva8Ut4yIlBGjbMdvGllcbBnLsB55t3v4RF3eEbRgnF8rNwgleZcpdy1xT0lAOQI/Ftwy7B4mcWRFAXUaq3o2638hyER/Le9lNGNuF29QWLGEFi2DNHYhP8AzL9P+zik3TFJH5xS68wzykWjb1+Mx6telAPbEEzo2EnDxZhaGIOfpmIJ4ITjZyHYW/cNCmR+RPJYmR+vrDaoLLXdbU1G3h+yuF0beM/3E0yGf6Z//8QAKxABAQACAgICAQIGAwEBAAAAAREAITFBUWFxgZGhwRBAULHh8DDR8SCA/9oACAEBAAE/EP8A9tX+F/q0QRXBiugt5xLg+HOBqwEg+rlvG/6mceXwYxSr3jHHOKgZ8s8DOmBEg7YNiDylmIBt6y5f6cTPnocvi4cp+BzYB+2LYZ1ihKOMAkL0yYbSTs3kbO8SaZu4QmpjALnkf4MW/wBLePAxVoOB4yF3IHB85z6FRmhIbgsP4w4y4ih8Y1BM4GzEG3u4h6wYyJybWNp/Cg7LxhgJ94TTfdM0hfHnHgpvnOAD8f0dwkDvLpaceRBOjvP7nA5Fgn2Y1xGekeMem2mb21nufSw/kyPcHzifhZTQb58YU2f9NflxURk84a1+sDT3mlur1ixphU7/ADm7Ipx4zXEPw4IbJ87xGCpyX+hmyQOcZRTo84aeh/wzaNIW4Dj/AMW6vnCEDTg+sGD2IaTrIlJ/GCaUDyhj8958k5wN7NesMmfttv741EqdneOxkocGO5FDkfeTWstQPrKKQN4UePeFG9uNSCYLWweM5xfWSCl0jge/qTeRm9Zfni/zygV0HeMza85fLFE7TeFGnhcpyURb26dDkHS+RIyrhoyCY1cFI0of6GVaJXA1dGMxyQiXvFqdhe3cypgaqmiZ20Au5/ZimchWv98YUejIu8r8kBu+8mU48YVFT3ili3gqOeTxkpXyZSa66wAgExdCLiKk8vGRkewv64RIPnJUCuX+aUCvGSMR2mEkcY4wEw3StZoeJnMuOAfryYnSqDt7cUXbW6W6xG4Xbzzg86c19ZUJE0/PDvG3N36IHWEENHjFjOrvZ4MgZCufkwtlKzp9GClRbEXQpzy40jrwmnxiAIJMSd6w8Zik0+sLo1jC6VS6mLEH06yxsHvBNm94wtfJmCMt8MQpU+zFZvFw8Cq9YjDbjhgdP1lw3/C/yrgsG+3GrEwNc7T6zR84aT0MhOpHSYB0Dh8AkuDWS1d6gYR2TVcs8PBAgY/GD4NaYHt6yL44dDDXfWczs1NFuIV6abPvCC8Kdk48cYLFCjIzlyVZK4LvvFQolaJx4tmzAfP5xW3hPWb2/GOeCLXbp6ySdhD8n0x63JoVxiCH4vzgPviCPNwZCrkiATfONbTqI9161msx6TvAXRa5RI5ajzTjBRJRHT4wDO8oZf5RruGU2e83O5Io4ERuxuARvjIBvfvDTKDqP1y3X6ZrjrnNeDB9J4zWbuFGiuICpC4D1gt3L0lvXowgU4jmHwPeDNmytzI8BxmwA54YHSSG6exHJlDU4HLPrCAhPjLrTcqEh94UJduqJt+XLaLPI8ntuFBM4ajryY3i6M6lHjfE6x5BQNvunBduK4dIyzddYJnHWsEHsB38ng047Bw6b1fBPswAYQXVNW+5jRJM3UQ6OsGGWJT4OI2KXRb6c9c5rq3iV+TDyoXSv45wA1ly4Ny5f+V4x3AthsCf3w44LWfCZf1N62fvkc/FHDjIoCMaYYP5huDu5Z0b96xWxs4fy+cM56gDpyut7xWnfv6L3jgZqNl3MOMSNwcLFU0LTw9YDFj8ZSfgiPcHbTWSWkCVdzs3XLM3Mgb5dGAcGgBbR36Md9Q2WzcNGDBRECeAcEQX7oxMqVETJ+nOFaTfRuA4nvEQ4/JsDnGZhlc17PMe84chMFwmgsq4MjAEQgm4edas7pijlanHzliNsCTvd9X9M5l+qL4HwV/GbjgYT2f+YvrQmzjVx/Sp4XBhPsXjJIiI3PByMVQgpPlnMwXKUAP2jhmkfjLnP/Kus0Zoig2riC+EnBLg8hiVX6uTBU5WiugyKtOZJr5On7xiImuXFpKRU/MyvMg9HMO/jCe0M8e7m7MMOm33cEcvHw5LpzYrfQONITHhPzFMMnSoqm48LkuXBewzaRLgEiDfJgK6Z2qfn4HrHYwNDXSRNefnIZ1olPAjwYKoYUP6MeMljCA8nHlr+2DlTgU8dtP3i7WM3iqJlzgIXemfnNiAVsu+Gc/eCU6RgwOJqnWNt+TRTrxyS8G+zDmqlEYO95PrgZovn9cTSu88dHzjKagSldr7X9cSgLuQ3adMyyLKXnBTAnGXsM7g4YzDGTolHw5QqDrzwLsy3X3+oG/GHQHlL+BfrCGnD/ifGMTns78j6xIEl99R4hjQ8uKOOcQnaB1DPfvGd/Q4HvwY0wiOnpvHRinAk9EJlI08AsPV3jDhhz2w9TeHUnaCtLtrEydCUiU8ONcEpWbR3V533lJeESCg3bNZSRqb0qzsPPzmg9RFiopYHjCFBhUObbTJfRi68z7yHLXvNQNOkrfGRFrSD+cUxTjE1h8sSSRGk+8DcHrkdgRnw5Ddmg58Q8LrBg2YegHKTqZFIScFDQC75wbWhgXyyGGy6Aq4x7XAvnTfm8sD0Ctns1m7/wB1rFalEfZeCd84Y92pRy8Ob5pfXd14HJkgmeeIePecWjg+gB1rLCSE0x38ByL3Gjh1g+wNOD2PwMoOfvEVRs4xslvTcV91gI5opDoDi9tfPWEW1g6T/guLDNZIGr8mz6xrvxo+CRDKFF3cCs+T1kdqB2HGBt8agvWAiCq/CyJEMMhcjymuZldGBWbQi8TIoIGUl0bp3fWCCKMXY7dnX98IqLpAxKZqkkqcO+sbwdDocplTwfDuczBq8Kz9ELlwKtj1mnR+ZjywlK09bpDX4zjNw0IdQwfumMVmUKEAA6Gp9eMWYAJAPAFLzv8AFVboOOLwMPbMAvjogPhnD6/g5yTBgEEAOGPeAAAAaAxQ1hfGMwQg+1rjgr1hSWpHGBDxavbXvAdBh9fM+MDpQm+ppngxlwO94XQ9E5wj9pEc4Tzoyb7bsTX+uSYGgkjw4CYjEGz5ymfpdfjLBL8m8YKDfUmKkeRTdnnF4Ybyphs7jh13kaQtIYRwtOwe/wD7c/6xQVDyFsjFLanKnK58bxU2g9gH0NOMjYwQhRfyQmAifRkVufeUq1v5IeLpX66yDJxt5RfAMicKW9AHmfvjNLhDacTEwfcwT1Jl6iWqNwisAqljarqXAUDFAVBsEKr6MsbqnjvFXyYjgAA5NRWl26vi49fq44UYqjdcYmUSljREyInGKhQrCsw25iCAAIvGg/3WAksNrLpJOhr7wsmcq0GKgpNPWJJVcEbrgKQeYZGiYcoI/MFLw3IiUSbfnoi6Chs9YMyJErrs+E6cHj+Lq5TQuV+3nCp2J7XUvFFfEMpZEGej4O/185VUAzgog8q6zxtyLaL5bu65xCmWiAf3b9MUykj7Njxy4dZpaNKRHsOPwYbSHAEESpo7xXKngTwd5yiSQe+G6W4nW9ZZ8mIpjS1M5/C5vVI+DiV84a6yvCQDGwSjbla0ZW91M8rP1/TIAcH/AAawVDR59Y4sz0F/XLpKKC3XmY32ZKO+KgL6uAvGIsW2RDVD1msY1NT3fET5wTib8fw6PWhl2BL893JeIuqGCrw/GFTpxTVSFL1vb8ZFwxoBuDuZuB3yAiwaaTXlxemLT0PhwaADd4GFgLk6TodU48luCRdiBAXtBLydcYRCgLyonagwd+7McwYFEYgwqP1OexGY7h096Dwar4Dc5kw7tezCTfvRMQoJJcOEYFVyM9TrLz5GmmhKOhhAiM4kLtQbB+rzt3UdnZ8CjqbfvFmJDZm0DbTloe8XeQtDxz3lhcTgmg7jz18uQjcdCvL3Id99Zq2lQUqq9TX1jKjGwRovRzMiiSTf4wo5PnXEFoPJtx4yM9vb28eqZbbzaUNh8xMRfuprq1v25yJR8pCAlaOhvxkJJJJtQocGfWJDCVNHnrJBblh7Q9uujnN7Yn4mrR26m9c3Gz3cB/QXKgFXkvwNOKEjTqbzYbOxODF4JoL7l/GRSHb5cu//AKWYwUFVwtZMd5PPj/OW5jvIzEgwftXDwpwKffGEG4wAqJy89HecCUs6HPbf0H98ckRraFQreC0MotMQGS6zT3ZxCUcc7YcrZsREmiYHrcHTakTnp3+KlauV9l8leiv3jrBjuSgNj7JOtZtBPTchRwVZ2uUl8n52hKD0eMtxMS1sqoVOd+MSB470zscUpRz8SMELmlIRBIQXQb6x9HB4GijZ540HMKWS1raNloClvHaYGnP3k1h7YQNwNbGn4d4IHD5FAIhknTmnQyJ41cA9l3guA76l2TvAglz8D4eh19ZDrwn01XgA3iR19Pv+JcjbQuWfuqOKXKOZSb9bYeld5+aq3eshU01Q4Vs6zfAAqoonGzWNfPlmqsgoc+PTkLRxcq9BezTzihciJvnFJ3W9QNOvfnB+haEcoM2kA29Y4ENiw8RfBfeAcxm11vTxiSbA4UOeEuW05+w9ZpmJa1uHH/2v3S0FyuWr0GHq3jwe8UieFXj2uRGBy99WduHCQEL+Rrj1kvKJP9HvIRjK5+5syRTG7FUB8QdYJ6QOM1/fRm0ZrK0bGs8aQ9rowuwbUk3vh0iu/SGqXTClx7C/vH1gJCUSiecAc6usJkSAonhwtBYCQODCLkHl5927+sGjIqO3YkISCdeDAaLFrnooOE1hHrAEM6rUsmIdUcOMYvt5oE4G4Ej5cLNE0I4B38rxhtMJAfHDSLzDdj3nMFD6vZ939cjBv/wrIW1UDAKRm8E6TqHIRFLxRFwtTh8c7d1veRJAApQicbU6xnHbtAD0hr84d9ak52+zdK+DER1nfLB439E8Z0hI9F+hZfjGVkNetcSTsaZq7sdQgl6TleVd8TWQQNZoIbLhxOpeSDz3hMyLqJeTIkxhgEbe/GORuDtAUrxIGGKCNFxEp7Z9YKCcXiI+94tR++vj3g+LbyD4PL++FskruDzh+WBP/rhkkDCbaNfARxn/AIgHIQfOLO0cTtg5C5CtgSlb0TvAgCjS9gja6TCuorZIDNcx1rT63sJUVsdvAbh4xquXQS7U9ya85dU9NmoG1kzbafJTsGzp84JolGogDX6scAAlNXHg7H6fOQuo3FO1M41qcE2uN42NNjugtbhoPGSXikI4UBzr8nnAplpgfj1gNPKGi6U5N8YTkMTbNE4dk+eseRnUSHjme+h8yqkDR2oMDzQb6nejlkIyC1qHMGuiZoFuGaNpvw84lCR4lCDoBR7h5wB0gADt/f8AjcRt4r7BpPCiv8ZSp240kPgCAepi40gtWdfi4XNpsCpqdQ07682jeBhjZgXA0HyvWJyeIgK4HJwf5wtogq0QJ6D9c2wAOEEQ8vP4yiimO0DLoMX18YzDAfWKO3dduIYPUZiH3ExC+513hQ+FITqh1LsBu3SLOKrq0qzsNEd8ovON4d9gKcPOBdWDSh1Q06uPqIZkPnxnAASH/qa/TF/aldHQepgkABoDr/7uGFdHvIY2LWjpeU1g4Flfb9s63woT9m5iHXBxF4Bow5NugPoOl6whRCuqk0++9eHB5sbUavRpZJ3zg2UjHEoz7+fXGEgI5oM943VtVpfIneAxSUz1Ne+MejW3DTlSjLNJggCIB+ByPHS9YrM5LAvOx314mD5uh5G0vZrIQwhUKUpHFT0q2Y3Ng1HScxBSMOHWaMbL9rJ/TIfJLM51n+rj/Ne0doOzk+FzgIkYJqtXl0si5RYyhLWVCBN266N0RIwIkzUZpCcar7DU00VfK2/f8HOV637mgO3yH7GSp9NAPWivbN3KYym7Ab8/LgI3IEGo8tJU5ddZxLjycptrQs635xSUCxIevlqnVDzl8CQtAxzrve9n2wp5xZIHJUH56ZaqYEfWKZPoICTzpv351TVRCo4LSIfZxOXNRvveVsD9vOLKsWoA3TzyeOMSro2OENXdH1MpIBzurw8gMn9sJy0xFLZP8zAoXAx8R+j85cA/JnXsR9G+sFqMvHmjsBN98952/wDtwOo1dz3Pbxct9xr81xmgdyC+TG9Tl4aeuvOEr6W958L8OGK6qQvSfH/mKUpdtaadaPfvA6mdKCTrH+VrvD/CcwTdbOubyYmIOkY1IZr5PjCsS4JxhEKOtqvjkx0k0Wj7D4uAnNsoFjHOk1395wYFfd8h3z+mPycL+kEu6I6wj4gC7rrVNe795SEZqlFqUV1PX1ky1d/iEaERCc0y54htjhEoA9r0oLcaGeqlMgRG75w893L5OR9mAc51/Dvh+iB51xgQ/gvp0AA5XopcueLWzRI9QDodcuLKTwijuok1XjjnBZ5F0hbGmzg+8uVEqEREcrCvA4H6oiEohY0LNnY5qWhF9iMjYFGez5zT5DIqFscQt8bwxdOBTboIJFK20d+wQRGzU530u7mq0RwK9Vv/ALjfagcrn7yDQWd/WJG5HrwZ9J+MOi4jWWdnYfDkDgjxCI1QCLR73cq+sE6mEo9qMwLCMJS72noPP/mHUOqQ7+v+soPjZk17kaeBuMouhH/gzzizRRm/TEKKP7mLpxdib5HDBAEwPS4qsKFRWcPGE5HDTov1vBpieJEfMxGf2QC8LQPrJZlVQSiiTS/nN/Af4iy/KjjTlgYzAOvmlwvN7AhDb3/OAtAHyOmvp048UI90ZTrzztyyY7doCR86I86QeMaoeihDkRRn7YIqp32dmcGnKkAMJTdCr36L1cRfahA1oqs99OuM1Nnwx3pIcadOohqsRk85eJqoO3NAK2I3MhANLULQPP54nbKIrlmqnMYdOthg5+6afM4+8o5cTh00S18HlwyU5ZJeL5Cr2njEgLkDXyvqYBZaaaNV4ANYGvcbV4qcDowX1UUWZ0Ryk4FO2kIMThtkaI/vhIRk1NH3s18+LinpsSpKo83g3s3lbTUQEyBu2SW7hbfq5IE6+7VHhZvSCL1lUwH1Z9ZphHCw/wA45IjWskHfZKI8m+b/ADLdjBUS6pPGT3DWR4ojwxmL8tRpXQGiN/OArXOLZYeyrfjETWJ7pr8NuHaEbCl49t3hg62HvN56jfCr9f8AgS4KskRzecl3g+nJl2sGT0mOyPA0wUWloR15yWQrwn64/wDOsQ4bYb9kmM8umtl9lxoaPfnDjMEFipE3P8cZLnMNAhWlNiPPfTiiyQ0Wg7+z5B4wjZEpCxrs7eJcXf6EItFdveuFZi94gFKzTsf4MHc4FwakA75rxkQR1NjqXB8z7wn+EQMxQfxjMWjWR5eH/wBzdGOQs4KPAB+MZJM1AJNqPXNepVXFvRtUhFqMFM4KcYF78vWXXIQmvkeR+MSUtifu7gDnbxqbr6ZDMcuxOnKufrDGCG9udhdcIM3MksTany9UPQOynsywm3UquXfzlcZAEqHgV/HzkB03mlS9L29E8s02iJSRXVSyeaPBoUUDu4P9zy7OTOXWVNyQuy9b48GEGcvYUoMEmi8+8RCUlAYeXrZL7mTvDFA4VNFPOpkEM25fBhvLSDngMkb8G+A41iHX0IM3XtboMoREBy0OgQqpG84s/kthQa1QVzDyGDuCurcPv9sAAs8ULlX85Oakbym/646O/RbhORjvBmASarV/xhNvCZcCPHUU+J+v/ElzkBEFM5WKrW+3r8TCVogWVvt+MVgdd0DrTkP9QKfDOBqtC+TDGhkLOtI88ZLmmhSmnWvxgwKhRs3zgeTcIb3Dvzhd1QaBe3kq3CikoRJ5mFIysmjuOQ78KeTEStVzSqOgC6CY2VampwGm7p6lyV4T0Tg7PTcLJiqHTavZyLDePCLUvhXiOPtzb7YvQbCg31rHDvhRvHSl185qTw4GxeSuPvKRVAuDSIiaFOMt+XiwoDDewp1g4cT1keRcDjxjHtj4U0EdA1fhhC6pq0OC/HBcGU4qdHKrrH5tpVlW+hafIC97NpxFtSI4TK8QOBByU04SHJxs5+aCJOGfAwKE++Ngw1YwzvVzNLqiy5JmjgyVGRQ2cAXQi4kQ3xS9758n+zCZD5CPjkyk0kUH7DafPGIlbA4h47ylgWsXNRiGi74MPihkqgHBprp2Ocb9iEwLcQQUdjt5wVWYLRFfaJ/1yxilqvQZvfrx4Y9xKbtBNA0nG+pgmiNz0ENcwDN7Ki70/fLjGMtmx7cYYIAWgP3dr7cOP+NNYmXjZD8e5GbXpWCvqFPw4jdVDkLqx9MyDKuUfe+fvA4JiLBbi8fhcvu5sNi6h/fFeqaBPI/7xkJigLUt/bzid2WU/PPj6wiKGIPK6MHKKJKhUgkZxe8RNAy5FbOu8PWsLKNlQ6NJNzeSxVspNjxyBdm8szZoo6PoM3v3qob22oQr+y+fZjQ8Z66AV8RqfI5do1p5FWxw94w/1u0emO9JxgYXFt09fb84YUlOjpReebr7yyRLCQrSioXbg8DHkEsUoE9/bO6m5dBjvoPOaI2FDvW7nCfWVu2cR/GFV72HA4Pxuscj7XbXe/bjy1PamxyUU6YPBlCUW4EGOE3mW2KeQPfR9kzbcynZZ+IU6dKOwcKU/XKs8oTy+MNY06FF1dzlR7IgE8PHQ8PADUp/bH4xgckkAdNyKyJ4RsRIahCui68YVPSRVIN8i0punSYigjdac/7/ANs5By2stVea34OVYIUQbh2s/XCSaPK7r3iO1AFyb11cK5Udzt07d4EP5BGBEiJRyCMdgWx5hXPjHVgnqC6WJ9maIpUieopRhNVBSinw8HepjucHIjkK4+clFj8gHFPLWDwfa9F19nz1gEzpaqbIQiHRz25wBSk0IGjSdE8HdwzAQ3i9vjjNj60KUNbG6D8uN+sGGDE17/bLQ66ls1HbXT3OXCaURFpQgLDI6BUuBJUNsws7lrAjrfERLykp9sgTwfOI292wvLr5tH+uMh+DUc7AWeTWNitoQo7FA6XZvAZLv8DroUmtsvFciKxtp2CTc/OCCscvCfBCRxdBy2HoSSjsG3gvIFd5E7x4+aYvNHPxiEbrSAKoeI45TXOWkEeSEpw94EG3TEam1KjZwuG39tUQAtm/9DKGq3E6hL2f6YdKJOOq5TggKETMBJAYihHZUh814Mjw0CzVsIRxoZu8ZM7m40AKYBNqLhsFkCdpAmFV1qFoziIQt7V8JfIZMCYaBE77AOu6uCXh3Xcf33kvarqbyzT9OP8Ad5v60b/kpia9eM42RMn04z1Tk/rgPph8bsTY8977rAN0RDc7TY23HWmbyoTliiHpe9nzm1i5qvCeQvDhCZTYA+V0ekxPYS3Q9djPWcRdczJ/dmv3wI6BCE5QN+tc4Oklcug5PEM4MwyFARnDZDzlPw4GgXRH0mMvPQ9c7pq+MMGWOeQkkLKIbxV8h1R0PDJK6uD9AO0IgAHG9lKZUgm8aAuv3k5wlS1WPzByC9XpSPixAHxTdQ54g8SwoozuNoXjTe6zVwBE4AjEFvEVOoQ5RZESNP6Fa1oDxMT6ggQHmorGkdm8EQNCKdHZhCVnhx/0Hk0TuK8h1rlMD1X1xKBp8r5PjHX+VhEhV3Da3auk2F8ptyKgb8v75PMdonp2Qqx4GznDbSiaR4DwcHWHgJIoeGOFZm9hLuQ0jhIPonblRvspi+PRx+mJrBoPnea6za8RJeDflJwYQ0pISS/9Geio+d/yrk1midIMg8BgPhw9S9Wh2CnByPHOatiBKrw3C87nxnFhxg8UlN+/WzOBslgPIedUuzxrNjQocI38vjNqHOTbrhwfTigjQ/zjT1eZg/JBaxIiabeB/tg68oOagGobRbdTe9vgIqdXX+mKJc5BpSbFRxxzmvuCdqDCAcuPP2r8Vg2o5PumMCCRKQS1d6Ei64BgdLaiuZJix35PwhJoq4sF/Hx10KTTeatLhy5OqvxkUFCULBlLp46xYPFKhJSm/vxlfdgdXuVtnwYnusYsbaCAuVfGLZsxRPQKuCOCbEi/pArfNXV4w2YSL0e0GEeJ+cFZwJZAiCC6BGhTh4FwQmEKROoywhzcR7TCJt6ga+DL3AHE7DvHZ8Po2sXTjnQDwAgHQTDcBceR/tlrL21doB1erhFVhwGgPrOlI2vnNcSpb/MgglEjcTeSUbzSI34xhbNqDgKtL2LcAHpnQq0GzXL+MFl0gXnLtLXpTLJhgadgxGgbOk8GGPoCSa6SeH/bj+nGhwXS9YIuIxvGt+MJSTNkKwKXfzziKCExJyVsAIjvsEGl4RuaHYSc31gR3OM0H0cHpfa4sXd2dBckrfPCyulMFeuSwDYLo3ihoVyOq64dfDjoLoIW6/VwbKMQQog2d6PODcKITW0WAoaTVk4eHNsVVF4EKaf1XjtDwWrL8cmvjAk+tBFQDsLdR8YSvcJqnlOuG9ayxrnwK4nhIQyFWCzJASRvBfs84uLagOpT+zy9RchaqEEgp5g7aAG84gQaPb/45Ltpwb0r6LcQrsntov64FNfON15UnnefAT9H81znDxnOqIDfTTNteTl3gtD0B6ymTiNRZo/gL7xh9LsUvSg8RnPxIQyBSA7IWE7BGcXBdGoC9sN/gBgyt3qLh8g/FwjgqIHovJcvBq7rwc/OEW2UKAUA5qddEOcg6ySHSu7ypd2cZNrhjQ7BsR/2YAwqa8vV/wA5YOBpFeVaa3MRCkQEb9PX6OSvzksriTWyq6LlF7ciABJUOJLJlO5Fj9to0ywln5WGCXAjsUU3F+8ZbdFWsqIutznjComJCqJfLVrhT0hqDoeDqmx2TeC5C3gV49Xnn98CSM31uh93DlLxaMAO7X/TNfXFFBu8e3aHgyNDRyPveALwZfZh7IBQu86f1B5w4/nJntkqsIF8nIvY4BgRFIw0Keaqriioy+wgkQs4PGphYxkA0qSJONuE5ZkC3UGlu047mJpLaBx0q/pvDjPE68ihEgF0mUZxF+Oxh+W47sUVP7PJO9fOQ6Bdd3QRvRzhqxC1EVsf0y380EC6t+SZamWaNCrrx/07uJcAWkKc6uz4x2hbhWUHwTDy8Q1PB7P84oNyqJvEs3PWMSlFd7LLpZzuU84u4AzlxTpQnoX5W6KIC+9+/wDpwlV9Q01QfI+8eRCuA8tAVdtfeEMEdHxv9sK7I+Xf/WNes/Szv5UFMFCDgDj+gT4xrneb5k373tm3rTTPNDYmXXc+9MPnRChnHcpZ39YBXISpgw9B4f8ADu2oII5N7P8AfWSmrNV7Ju/GADgs0WNehxPkz4TKmUCKcEc2rNlMbNqfGm9A4oC4bQ77mumO1vLk6SEtO/QGcGDyKcMKfPzhCDqdebeOWJYMaNyV9GvvHb4WyMipo2q2u5YV69lI2NTBABuBzht0QeH51z/nLckfXCN54XoMih2p7uE/odfZkNu/Q85z6xb/AF/f+iS4lwddwdPkeTCdjTBm2uo+EHq5QJqSR52ATZu61gjrEyfekICbFc4wbqWYeab/ACXkwOzWQzO42fONaLcUNDqfGcYC1RTu/wDeLR5wNX9vzkk2o2KuaLYVXp/+ZO7oYT2DXgHreBYW0hu0E2rb6eGJWCIiPU/bDhANKCHV8BsVgO5g5RaKgKZtWv8AaGE/VefmJjxMsaCQa/OWMjBf0iZ60KQe9mT80ifkDQ/Q+MPxFAbANJAqXS4NmQPZ8u68V+McCLYh+e5r4cfWV1Ha94NGwdnz+cCOE5DguvM1+mQ5RfZ1OlA9AHA4kDAMCaqnJpvrGjUYghVIKFdbVcUCJjYkAAaAIV5Vc4GqOuxclPKj/frHjKLkxFmEIEPH9LS94kMbDsPSbMOoR270wdHf4Y4Jjj/Cb+5gQokLZ7P3xNTVKWkJ2dvc8YOwBEezC0vIY9kwvxQWgKV/FzflCGfLmt7qr63++XbVdX+obxrHJh7o3dOF94G2GWpBW/f8B3xL9ky5CANeX6XA8giQ2HH4/XPGlXaTeC5kdJ/UlQm1F9YSl0T98P1x4xhskHpf+sj3S33/AK5KR3iahW2d/wBSkQVELU043B2yhs/wdjhFwv4YT9stIFf5H9v6rP4sZ39SayZaO32/rC9S5BRxosNAhf8A9r//2Q==;" vertex="1" parent="1">
          <mxGeometry x="-450" y="230" width="199.47" height="199.47" as="geometry" />
        </mxCell>
        <mxCell id="8EQVTj4kNs_-uSSnPVcM-2" value="" style="shape=image;verticalLabelPosition=bottom;labelBackgroundColor=#ffffff;verticalAlign=top;aspect=fixed;imageAspect=0;image=data:image/jpeg,/9j/4AAQSkZJRgABAQEAYABgAAD//gA7Q1JFQVRPUjogZ2QtanBlZyB2MS4wICh1c2luZyBJSkcgSlBFRyB2NjIpLCBxdWFsaXR5ID0gOTAK/9sAQwADAgIDAgIDAwMDBAMDBAUIBQUEBAUKBwcGCAwKDAwLCgsLDQ4SEA0OEQ4LCxAWEBETFBUVFQwPFxgWFBgSFBUU/9sAQwEDBAQFBAUJBQUJFA0LDRQUFBQUFBQUFBQUFBQUFBQUFBQUFBQUFBQUFBQUFBQUFBQUFBQUFBQUFBQUFBQUFBQU/8IAEQgDIAMgAwEiAAIRAQMRAf/EABwAAQEAAgMBAQAAAAAAAAAAAAABBAYCAwUHCP/EABoBAQADAQEBAAAAAAAAAAAAAAABAwQCBQb/2gAMAwEAAhADEAAAAf1SAAAAAAAAAAAAAAAAAAAAAAAAAAAAAAAAAAAAAAAAAAAAAAAAAAAAAAAAAAAAAAAAAAAAAAAAAAAAAAAAAAAAAAAAAAAAAAAAAAAAAAAAAAAAAAAAAAAAAAAAAAAAAAAAAAAAAAAAAAAAAAAAAAAAAAAAAAAAAAAAAAAAAAAAAAAAAAAAAAAAAAAAAAAAAAAAAAAAAAAAQqUIKgqCoKgqCoKgoAAAAAAAAAAAAAAACcDsSgAAAAAAAAAAABBUFQVBUFQVBUFQVAoAARRFCURQBFEoAAAAAAAAAAAAAEFINYw/nXn6fR1HjieRu9rfPmeyzH2vJ+Z7j7Pn+24+Rsq9mabiU27n52u5dVmVj93DnvH6+/p47c+rjHXbx6ewye7E7p49L1NT6LK9+ul+nfTsLo7raipRRFEURRFEURRFEUAAJYAAAAAAAUAAAAAAAAAAADD4fLstmdn6jfF2fV9b0vpu5xPF7sTz9vLJ5bBX1zzZjVp692DicPs6+z28nd0+37fo59NzNvW163mews4wMjvd8dfOkcevuGBh+2jrVsDeJTboPPa9eovwfb1+8db/ANugbLsye0luqAAAAAAAAAASiKIoiiLAoiiFAAAAAAAAAAJQnjY/5yyafoHD4/sXz/p7+x++qizlxhwwfR4xOH7ON4vN2Xtb0c/eXgd3ejB9XWvO18faL0d/2HiBJKAAJQAShKMLV91lVnznK2DWcez1Nq0rrsr31h5mzGLKFIAsCwFIUAASiKIohSALAsBQAAAAAAAABJpPE7vreg+Tj0aRqH0rTvL+j1uY+XR6/P6LoGHxl+8c/j/0njw/Wc+EZ563HZKuuPXx66bsfB7sOe3Hlwv4+nev4vtfX+IFvIAAAAAAAExspDQ7vGn49mHturTjve3k+tvwizEUQBRFgKAACFQLAAWFlgKSygAAAAAAADhz17idY1/0+Hjb/OxfX6eJ8Wc9V5eh80+xcq9XwjavZ0ir6LNxfS40bdq+k/n76Tx4H13G6+NHm9nmcfHm3K7Mfn3Pb3dn0r1sWTkH0HmhIAAAAAAACKIU1Lz981bJq8vZNd402768b2fQwlTEKQpFgWFAAIVBUAAAAAFAAAAAAAA1Ta9ap708eXr4650fAe+ds8zRu7TXvH1f4P72a37v5Pl/UvP1fmzh+j/g2f6Cebk+zX6n0vuwdczfMZvPUdhifV9fE+q+lhy/SPqfJDqAAAAAAAAAACUSjVfC+jafl0+Vt2m91dv0R5npbcVSzAAhQAAJYAAFEWBRFEKAAAAAAAAPO9GQ+T6jkfBcOjF8Xv6NdXDuZHPXD3PNlFm7fR/jHu4rv1poerfWMGj8t5+5fLavptxdWyZIy9j6diyeRke7r+V6vnb8Pr/LAAAAAAAAAAiiKIoijTsHfdIx68PedI5RP0B19u3HFEURQAAlgAAAAAABQAAAAAACF+S4X5uOzw5jnGOUTyy+rM46vPny468v1sPFq73X7j8B2fz9H3j80/o7R8mz5fnapt+f636XuvwP7pR8zk5N3f0/L7h9HgAAAAAAAAAAIKgqCoL1dg+b5W5aLh2+ruOjezZXsKNWaoKgoAEsAACwLAohSFAAAAAAAHxa/nM4eNcYnFyHbzzImd/LlHTg64dWHk9NXfrbhon03Do3Pa9Y2Tz7/gHpbXqPH0T7lrP3bZ4vd2nueEEgAAAAAAAAACUJQgpCkL4ntOZ+ec/QxPO9Db83RN63YqS2ukKAAAAAAAAAAgqCoKgqCoHxfG/PMxfGdETOKkyuvPJlO2OnU4RPDqtiOvjk5VXfb9nwPe8fbn9+FnU9eRpv1HddmjZO2X2fDCQAAAAAAAAAAAAAAAAHV89+j+HRdrvvax35tX0Bw5+h54AAAAAEoAJQABAAAADgcvgWD8Qlz8vh0wnAGQzRkOcS4zrLwIlkctoifJ+jej6fla+3q78vJb0Z/Rs1nHu7Me5gK7iFIUiwLAohSFIsCwKIUhRKEoAlCUEoSjQera9L8/ftWxaDvurKpdUSghQAAAAAAAEFQVBUxDt/NmF8kl2eZOiF4zmO96B15dJdbphy4zmllct1icX9TdvvTz1aztbl85fRlFmqbRzXcBZyAAAAAAAAAAAABUoSghSFAShKT5x9I1Wi7XN5031qL9wS7sQAAAAAAAAAEAAPKO38u4vzY5YHHrHF2Dv5ZhO/lUuHHqCdvJncvrKfO/SuTkTysSqCoKgqCoKgqCoKgqCoKgqCoKgqCoKAAAAAABhZsh8r9nyu3zPT+l3o7/T8wJAAAAAAAAAJYWXXTI/KWNo8rgOuEOZMxmDK480zpvRC8b2pehftUOj9C8uU82VKKJZSKIsLKIollIoiwsoiiWUiiLCyiKJZSKAAAAAAAAPn/m+14Xnej9D9LxPb3YBO+aAAAAAAAACGmGT+U8bVJXDnXCxyLl8swZUJdM6hxvbEvSn3eHX93tnkJAAAAAAAAAAAAAAAAAAAUAAAAAAAGma5sWu+dv3bYPA9/bjCzgAAAAAAAAfMzM/K/VryOWG5J65Mg4ZnLLOfdIl03qOMd8TPU5foGHT9rqeQkAAAAAAAAAAAAAAAAAAABQAAAAAAAaJ4PpYPm+hvfteb6W/CHfIAAAAAACPjJnfmbh4krjOMIdhyzJnDt59aeePemBO8ety/RcTjfYVnklkQLBUFgVBUCwVBYFQVAsFQWBUFQLBUFgVBUFABKACUAAReg+W5fle55fpb9kL6fmhIQoAAAAHGfn8zvz1x8mVx3GDlO0ZzMJ3Tim9fHrgl74T2+f6WOj6csxFSiiKIoiiKIoiiKIoiiKIoiiKIoiiKIoiiKIoigAAAAAAB4Xu6LXZrex6/u+LXsg9HAAAAAAA6uH5qMz4l1+aXpkJWQM65xw59nWmdLrIvfEz3uz9PRHR9BOoAAAAKIoiiKIoiiKIoiiKIoiiKIoiiKIoiiKIoAAAAAAAfJ/pPyvLq9H6HpX0OIo15gAAAAGJ1fls9D5F1+fJ1OMF595xz2Yl2cuodTpLLkQbLy/UcT0btE81EqgqCoKgAsCwFgWACwLAWBYALAsBYFgAsCwFgWCoKgqCoKgqCoNO1nnz870Nl23zPS24qiziyiUAAHm9f5rHx++IO28icsqkzueQcubqS6b1QVlE2ru/UcT17QdcgAAAAAAWAAsAAFgALAABYACwAAWAAsAFAAAAAA8j19Ar78L2MDbsOzZLL6WAAAABrWL+VDN0PjgyvWkOWd5+WdeZzQ9O4OXMzovCHHkyzjund+oodOwx1FQVBUFQVBUFQVBSFQVKEFQUhUFShBUFIVBUoQVBSFQVKEFAAAAABj/K9u1fFrzt+1TdbKw00AAANI5fk87NS44peMhOy5hxy8rIPJ7Mrz0u3jjxGdeeWnjvvf+m4cPYOoAAAAAAAAAlCUEoSgCUJQShKAJQlBKEoAlCUEoSiLAsCiFIUnHnq/M6dl43uedu2j0l9LDCzEKCF8D3vymaXplxiztHT23OOv1Jkp4dl6CYHfwMTInrw6/ps/TcOvPOoAAAAAAAAAqCoKgqCoKgqCoKgqCoKgqCoKgqCoKgqCoChKIolCKOPyrb9Sx6svcdd3mearXnlCKANW/Ff6f8AyeebmYnrxN4+vgmL6PTnyc5jw5YrqHbPUieH2L2ft0xx7yYAAAAAAAAAAAJQAQoACUAEKAAlABCgAJQAQoAAAAHX2atE6nl9fuedt9r15y9DEHUAAAfDvzB+sPypE4Hseb6cMrpYqc3IwMiZycLs6Ecezl6ML9p5/fJcO0nkAgqCoKgqCoKgqCoKgKIoiiKIoiiKIoiiKIoiiKIoiiKIoiiKIoAAAEOj557Xl5tHftvlbL1zRfSAAABrP4v/AHr+XYfGO/l0x1yxe3gc+7p7kdnZz9iXV909b62TkTAAEAAAAAAAAAAURRFEURRFEURRFEURRFEURRFEURRFEURRAAAPO9DQue8L1MXYsuj1co15AkAABSF8v1B+StE/duh8z+P+P6I88+G533fdj4J+h9v7ZiUkAAAlAAEoAJQABKAAAAAAAAAAAAAAAAAAAAAEURRFxTxtb4ZubT37j5/q2UxVvEURRFEUAAAAAAAAAAEFQVBUFQVBUFQVBUFQUhUFShBUFIVBUoQVBSFQVKEFQUhUFShBQATR/c1Sqzu9nzNy47yaaKAAAAAAAAAAAAAAAIAAAAAAAAAAAAAAAAAAAAAAAAAAAAAAsGPkaRzOBldPqUX+j7s5X0RXURYFEUQpFAAAAAAAAAABBUoQVBSFQVKEFQUgURRFEURRFEURRFEURRFEURRFEURRFEURRDEPM1SZue7t23zvcs4Fs4gACwAFICgAAAAAAAAAQLAqBYFgsCwKgWBYKgqCoKgqCoKgqCoKgqCoKgqCoKgqCoKgqDr0P1Ndrsy/Wxtt4nI5S31AAAAAAARQAAAAAAAAAAShKCFIUBKEoIUhQAAAAAAAAAAAAAAAAAAPI9D5zx105fX7lVvreyt9EpKUIoShKJQlCKAEoAAAAAAAAIKgqCoKgqCoKgqCoKQoACUAEKAAlABCgAJQAQoAEanE+T5fl+rj0e7uOF6mmiyrOQCUlAQsoAJSUAAAAAAAAAACCoKgqCoKgqCoKgqCoKgqCoKgqCoKgqCoKgqCoKgqCoKgqdZh/Ks7hi0NxwN2t45DRUAAAAAAAABQAAAAAAAAARRFEURRFEURRFEURQlEUShFEUJRFEoRRFCURRKEURQlEUT537nzvLoz/Wx96q7zcit2QlkShBSFIVKEoQUhSFlAAAAEUARRKCURYKEUQolEWChFEKJRFEURRFEURRFEURRFEURRFEURRFE8/N+QU2Ynpd3veZsz9onL1sMV3zKCURQBFEoJRFAEUAAAAAAAAAARRFEURRFEURRFEURQlCUShKEUJQlEoShFCUJRKEoRQjHhqnz31c75/wBL3tt8j392WU9PPFAAAAAAAAAAAAAAAAAAAAAAAAAAAAAAAAAAAAAAAAAAAADr54PE6d4/r698z6l3PzdxvqzeR9F54AAAAAAAAAAAAAhUFQVBUFIUhUoSkURRFEURRFEURRFEURRFEURRFEURRFEURRFEURRFE03c+GS3V8X2vF8Hb6Ox8Oz6PBFXcRRFAAAAAAAAAACURRFEURRFEURRFEUJQBKEoJQlAEoSglEURRFEURRFEURRFEURRFEURRFE480IqUURRFAAAAAAAAAAAAAAAAAAAAAAAAAAAAAAAAAAAAAAAAAAAAAAAAAAAAAAAAAAAAAAAAAAAAAAAAAAAAAAAAAAAAAAAAAAAAAAAAAAAAAAAAAAAAAAAAAAAAAAAAAAAAAAAAAAAAAAAAAAAAAAAAAAAAAAAAAAAAAAAAAAAAAAAAAAAAAAAAAAAAAAAAAAAAAAAAAAAAAAAAAAAAAAAAAAH//EADIQAAEEAQMDAwQBAwMFAAAAAAIAAQMEBQYREhATIRRQYCIwMUAjByAzFSSQFzI0NUH/2gAIAQEAAQUC/wCbnmPyLIZoapX8nYsN68lVyFiF8bqeflBYjsB/bJaiiR5iAUeaT5SwTNcuG7lddFHaZNDYcBjtcne6BPauxIctKzR5iMlHbhl+F5bNdkpbEbKYu4/5QV2kaCCxUavlGZ6GTjup3ZmmykMSmy8zs/qLCjoOvSxCv4mdrEYoros5XRT3GdgtprWxFZB08/MQl8Bu5zRxsYyTxNHlNlHKErfArNoKkVjM2Jpq+oJQVbK17SzOabhNfkBS2HmLg7IHaRVceEohNJUOQtypRsxWO7IbRMBd2IWe46YLUqHGWDQYYUOKrihowCmgjFcBWy4snhAkVGA0eJhJjxUjIwlgbl3mbZhj2Z4ckcRRyDKPv9u5HTjvXjuyt0/KkDkNiCYUzA6jry8qkkTPYhEB5FdCtGdQ54AOKGZplHWs2zhwsYqOvHD9+ajFM82NlgXffnzk3AyiKtkRkf33J5WHFxSZV8nN/aSlrDKmgmoJ7cOQjjdxlgxf01pWsMxFSmvwMA42/uf6VipHZGzj5a65NIDsPCtkCgcJBkH3rMZiLEwZPNSXJvXqnnnBQzBYH8rbrshkIBGtKMmOijnTEWMltw81HIN6uM78K0hV5oT7sX6d3GBYYucCfZoorBVVXshZH3jM5mPFQ5TIlcmk7RJ64OgrT7Vr5wFQ1BHIhfk3XZUIjeSzXE4hla/FVnKnJZN6lmwCsNzDFH3KH6k9cLAT1pKJMbEA84nqXBsj7o78WvZ/Z5MxOTyE9h7OJhnVzATQpz4EEicBmYq5wvj8tLWenlYba26VKj2HdxjETeMrkTRK5O1qFtrENZ+UDP8Ax4b/ANb+qQsbXce9ZBLzFwNUrzWG9yImAchfkvF2uKeIDUlEXTDJGuXJr+LgyAZDB2MaoLXmFhsDYqeY5iiPH5kgVOr6h3Jo2Ts7objyDWPtWA/2txv45ooTmmgiaCH9e9ju04T9xjAnVG+1j3LNS8aydk4p32VuwIM+R7R1ZYsgzsspp8Z1/JVMLbTDJEMzRkURadyzwSu6cmZWpir2LRdqS15Gcu80NeS3LSpjUi/ZyGOUUzGMkbqhfay3uGc6uspfCqFjMORlcY1BbKI8bm48knrvHJksOFxruMloPXnU9Zpo4DeGTF5FrNK/IM1W3d5VqtgbNSKVzqY+uVxqVEKUf7eRx+yGxzYxJlQvNaH2/NhvF0zGbhxI38nLalKY9wsOoJVEaw2d8QRNI1zGxmGZxJYyzWn4OLCx0bwzUAtcFJILx4/GFTeGlyfEV4oan7uSx3beGTcTE4zo3Gtx+3ZCHv1BfxnM8ONC5aOc38pmTNumEgevNuon3bA556ZCQk2dx7TRTQvUOpLuhmKqZEE81WjAMcELyrmwxYeXz+9kKPYMDY2+upNWsDZi9u1TlQxlm1YeQjLfozJmTJ/pVa1umm5NpjUXYI2Ym1RieAQTuzsXdjxBsMUMW5Rx8OlKTtWv3nbdr1T0UgF3VBKVCeM2lD2zVesWx7W7RSlISd+g/kUycETOL15t2hJaay3q69yIZ483TLHXatjxYMwDTuSa5Avw1SsdqX9+SMZQtVnoTB/O2PsPUl9r1drD0zWbDmRGifqwoG8M2ydGyjPtSVi80ZigmisBbr6oxvraNM+Kb648HaenZA+41WoVooohhD2C1VG1Fs9WUw7oYu53A9p1frBoBsz8yM91vv02QghBcV+F+U6MVRPmMLbthbDxI25DlMa9DJ1z5DEPG7puA7sMcYxB7Fk6XqYq8qm5A9Sw1mH2fV+r2gaxM5KQ91v0YUIJmQinTrkn6Un2nox8lWrdsALcNVQ/x0RWG0rLkLNatHUh9kytTsyREztVnela/Ps2r9YNANixzczT9QZCKFm6O/l06dcVjarzWqNRohFRvs+aj72PxVIppowaOP2WSNpQlhenOQtIGJt96L2TVusm2sWHNyJO/Vh8gy4+fwt07p1tuuCirlKeMxw0Yvwg8vts8ePLJLE4CDFe0ZWp6iGuf1sXophJjH2F34tq7WPeU8/J+TOTv02QihHdC23R3W/RmQAoKpSvjcYNYWj2YvChF3TrCVXii9pu1/R2/MkWIscw9gMxjHVmsnuPPPuiLdP1EEIJm6EifoyAN1isRPkpww54txZMtmNhfg+Jx/qj/HtWTreorQyOoZPT2m8/vzShBFqzVxZIpp+SIurMhB0I7JmTrdP0ZkAbvhsNNk7WEwcGErSRBKNjTlaVHpqZkGAtM9fAxs4iwD7XZh9Jcd+9Bjpu7V/dtWoqUGqdWyZY5ZndEW/VkAoR2Zm+ndO6fozKOPdYPAT5exh8PBhqvuWch3jgMeeHPhL+5fvw42tqbVU2Xllm3RF1byhBAGzLdO/VhUcW607paXLnQoQY2v7nci79aJmZo5Ozd/byOSgxdbUuppcxYkm3Tkt+jeUAIR8MPjpv0ZvMUW60vpI8oVevHVi91tQ8bHLYYS5xfs5XKwYirqLUM+XtSy7on89GbdCCEfG2zIn6sKih3fSmknvqOMYg92y48LwE51qD71f2MzmoMLWzmenytmSTdO/VhQimFMnRP1Ed1FDyWk9JesQiwD7vnvpsQbHXxP8A4v6+ez8GDr5nNTZKzJJunLqI7oRQiuKJk79RZRRclpLSPfQiwt7xqDwVb/Fhv8H62otRxYSDK5aW/Ykk3Tv1Ed0IIAXHw6d079BHdQw8n0no/uJm2b3nUP8A3VvEeH/wfq6m1THho8hkpbkxybp36iPkI0IbJk7p3T9BFQwOS0npHb3zUBf7iDdoMU21b9TVOrQxI3rx2JTPdO6IOLIQ3QgmHwnTun6CO6gg5LSekWj99zZc7sfmDHjxrfp6r1iOPG3cKUjPdO/UWQChHZN0d06/KEVXrub6U0i0De+3j7lz8quHCD9LVmshrjatvI5mt+rDugBAy/CdOS36CKr1nkfSekmot77Mfaij8yRBztfou+zat1m3GxYc0RLfp+UA7oQ2QDs3joT9RBVahSFpjSY44ffs1J26FdtzxAc7H6BmwDq3WXfU9hycj3Tv1YUAbJhW2/R36bIQ3VOmU56Y0qGKD3/UM38gNwjw0e0f35JBiDV2sHvKexunLqyEUAoRZcdk77dHWyEN1SpHPJpnTAYiP4BkJvUXWFUY+1W+9POFaLVerzyRTTuTkW/XbdCCAUALxt+FyW62QAqFE7U2m9Mx4WL4Ben9PViHmVYPUWPvWrUVODVOrDysk8/JyJb9Nt0IboA2TNszfh3REnfoEe6x2Oluzad03HhYvgOfsKBuA4iL6/u3rsOPran1eeXllsckRL89AbdxDk4ChZujrfqAbrGYyW5Pp/T0OFg+BXp/U2uPihF26/3L+QgxlfVur48zJO4yImIHF+XRkAeQHdMKJO636MyAN1i8TNkJ8FgYcLX+BZSz6anALd2nF3Z2/H28jk6+Lg1ZqcM1PZ/kT8gdn5CG27M0iEPMcaFmReE5Jy8pkAbrEYiXJWMJhIcLW+B5yx3bETMMOKh+5m87BhYM3nJ8pZll3TunUe3PsdxD9CA/qEV/83/sCPdYTCTZWxhsLDhq3wOeVoIi3mn2/lrxdmL7WoNQw4ODLZqbITyS7p367KIk+zmwsygk2J32W/ndMKjj3WCwc2Us4rEw4it8Ezs/0QDtFjIGkl+1qPUsWEgymUkuzSS7p36iKjj3TwM48HJwPmnDdRycxTMgj3fAafmy1jGYuDFV/ghEwjZmKzYcf5MfD2oPs6k1HHhIMnk5LcxScurflh3QAgDZfhTB4LyPPujvwk/Kiid30/p2XLWMdjocZW+C521268Achp1u9J9nNZaPD0cxlpL9k5N+roB3QR+RHdbJ0b7sab6JTi5NVDuBpzTUuXlpUYcfX+Cu+zXJ3uW4432x0PCP7Ots8+QyE0nIm8ri7LitlHG7oB2Wyd0RLfoYeK8Xcj0lpaTKlVqx04Pg2ct9qGAFWhKaVm2b7Gpb3oMNkJuRuowXbTshFCyZm5OndO/Rh3QxfxaF0yF4IYQrx/BjNoxsGd20IeMfE7B9n+o07hj7T8iFQiu1xRC5GI7OPhP4YnTv0ZlDBzWjdNVrdOOMYg+D5eyog+qrB3SZtm+z/Urfax+QHd4U/wCALi7IUXhE/QRUFfmtKaT9Wo4xiD4PPM0ERuU0kYttUi4B9r+pFdzxtgNiBvIeE5eH8uLrl9RF0EfMUPJ9KaS9UmFhb4RlLXckiBVIe6X29R0P9Rw9uHgbNst0ZLfyDpn6CO6grOa0rpDmmbi3wi9Z9NCP1EA7qvF2Y/ua6wBY64QrZOtkzJmQAq1QjLTGkGrt8Jd9mu2PUzCHijBuX3cjjocpUz2jbOHllrPu8SaNNC6Cq7rDabs5M8Hpithx+FZW1xGIN1BByeMGjD7xCxNkNFY+88/9Nj3/AOnNvev/AE5kVHRWPqKOMYh+FWJ2rxO7zSMCowcB+QZGz6iWMNlVg7snyDJ2u1HGG6ASJ68XZj+PzzDBHIRWJRHZqFf5DkrXfkiHZVoHlNm2b4/k7fbAB3TNu9aHsh8fsztXid3mkEfFGD5BIbRhdtPYljHi1SHumzbN8fy1xQ+XjFyKCHsj8fyFr08T/wAjiOyoQbD8fmlaGO1ZexLGOzUq3eP5BlMh3ZoPqKKJ5ChiaGP4/ncj2IgHk4O5SUa3aD4/etjTgkc7koCsZU5F8fkkGIL197s8QtG1Gp3jFmFvj+byXeOIOBUonkKCFoI/j+byPpowHmUTNIdGr2B+P3rbU68sslmaMVjKm/yAzaMcjqSKxahaO2qWOYpmbi3x/Uc0jRxYv1VmOAK4wxDEHx+eca8WWtyZMaMRVmoV/j5m0Y/6pNNZzWWlklhEDsVIO9KzbfH7FoIkeGKdPUmeYYhEakPZj+P2oy9bFek9RNaG1YpV+Z/ICFiabHsqrHOYAwD8i4sz/wDNB//EACoRAAEEAAQFBAMBAQAAAAAAAAEAAgMREiExUAQQIkBBEzAyUUJhcYAj/9oACAEDAQE/Af8ACccWLMprB4ToWuT4i1AE6IRHyhEPK9Nv0g0fSwrCF6Y+kYh4RicNiYwuXptpCEAoDld/xGtCnDDrkjK0aL1neFjcfKs8w5w8oTOCbK1ycwOToy3Tv4YTIvQIGSrkCQh1f1fzVZAfpSMxto+015amvD0+K9Fp3YBOibFn1Lh5INEIo5B0qbggc1JA5nMG8jqtc1dJ/wAj7bJbycnsxIisj3IFmkKbpytRSujNhQcYJBRT4hILU/D4cwqTW/aJUsuH3Y5PDk9uJEV3DPlyc5Yk0priMwuE4z8XKRgeLWDqKLfpcQ70wrv3mSfiU9lo5dw6T6VoIFByY6ja4OfEMJXFRV1hPfhyUrbaewjffSVIzF3gKBUUmA2mOE8VqePA5Sy1kOxjdjUrPyHdhNQXAO/5lcdxLScLeyBo2EDjFp7cJ7pqaK5M4sQMI89pE/CVI3EK7pjaHIuwjNE2b7WN2JqkbR7kEjReq5Ek69tEacpW9O5HMbkz4BO+R3GP4BP+R3FnxCd8juOg3GMW5SGm7jCPKmPjcWDC1PNu3BgxFPNC9xiFC1KfG4AWaR6UTee4RNrqUh8bgBZWgRNm/bJ2Vg8qR3jcGiyiaG4tFJ5s7gweU41uAFrRE3uAFJx3Bo8omtwAtHLcALQ+gnG9wDcI/adlluEbfyKc7DuDG4ij0i052I3uETKGamfZrbwL0TWsvJSvoUNwjf6ZtB0Z6gnOxG/8Ef/EAC0RAAIBAgUDAwQCAwEAAAAAAAECAAMREiExQVAEE0AQMkIUIjBRYYBigZGx/9oACAECAQE/Af6J1+pwfausaqxzYxepenvKPUrVy3hIENVRDWO07jTE37lzLmdxhvBWO8WoDwVeuKQ/mfU1b4rxutYraXvvL2y0ls/5gc6rtKFU1ctYKJ3goqJgX9S3qVBhoqY1JhpFYrFqYvPr1+2LDWPiY4jNJeGxmmukYg5HT9xbk/5f+yhU7ThhNfwsgaOhSJVtkfMZgusfqhtHN4Sd5cGEehMsFzGm8CkZf8gF5T9g/HUpWzWJUwwG+Y8ljhF493Nz6YDMxkYQIcow9L2ii3+p03TY8zpNPyVKe6xHwwG/kVfYfRaZbWdu0dLxgVh+70f9CBlAz3nRIOoeABRYfmqU/kIj4Zr45FxaU6J+Uw2hjC8enCuGMu8rZC8RS5uZ0r9uqvgVafyEpvbI+UZaMJUW8Gtoy2MYWnSdIXPcfTwaiYcxKT/E+WZUyjax85Q6TGcT6TTwSLixjLgNojYh5TG0qPjOXpSoGpnt4lVMQlNsJ8qvUJOGCImM2EVcAt4tRcLSk1x5FoyK2on01OKipp41UXWUm+7kh9rclUycxfaORq++J7RyNT3xPaOR1PIubLKQu3I1ztKA35GocTRBhXkHbCspjEeRrNnaURvyBNhee8wC3IVm+MorvyBNpYs0AsLchUO0prbPkCbQDEfwW4ljeIthyDGKLnkCbTWAW5BjeKOQYxRfkGNoM4MuPJtCS0UW5B3xGUxfPkKr/ERFxHkKr4FvEfuNh3irhFuP0nVdRiP2GdFR7a4jvx7MFFzHr1bEE6zpKGJsTch1FDvphvPp69NsDSlT7a2/oR//xABBEAABAgMEBggFAgMHBQAAAAABAAIDESESMUFRBBMiMDJhECBCUFJgcYEjQGKRoTOxcsHhJEOCkKLR8RQ0U5Ky/9oACAEBAAY/Av8AO54h5iLIcnPF5JoFMx6DBlyMtqf3XwNLiMd4YlQgzS4M/rYrUN1odbaiNHuqTd6BbME+5U2saFK0G+yq9y/VfL1X6r7XqiNa72KHxD914vZTdDBC2muatmID5LMGAdrtOGCNoGeZCJaDLNq2mtifuthxHJ1U1xBs4Pag5/w3jtsx9UW3RBgqmSodYfpU2MENt0yjaiOdyCBdJElYH1KwZ7Lin6Kk1cQVwE81cUJTC/U+6kCPsiXKgcCpwn2mjAlfGYW/UFNjg708hl8QyCtNeYbcGhfFaIgzuKo+y7wuojBgGebwuFpXg9VOVM2LbFr6l8OJYi+F9xTof6bsWOuK2IdkYtVDYOByUor3OOWCBqwZBAh0zzREgULMNw/C23hq24jj6LhLvUr9Jqoxv2Vw6LlVgPsqwm+ypab7rZeHfxLbhy5oCgXjGS2LTHYKxHb/AIgptNoeQLcQ+gzVp12DcupKZHMKp1rFeYbvqqFstn/DVSiwrWeYWsgO1kPEYhBk7cribwgXibUIsJao7JHCTgi2fDSZU4ji9bDA3fzlZdm1Th/FH5UnMkbqoS2hzQdDdZd2mqxE+G/8Hv61EO0eFgvKtE7Xhy6+RTYgqzBzShrRZi/+Vv8AMKw//wB2rXQ3V5IwoglECl/dm8IRYfCU0EztbJP7fJ7Yrmi5vxGL6kAc71Zdtws8lNpmO+7TtqIeFidEiPm4qhqgIu23PFWobg9vLrOaDQ3hWof4VmI2xEUj+kbxkhHgotdSIE/RzcrLk12Y+ULmbET91qowRpNuK1kPgxaVNvuO+amcU8LU6JFcXE81cfutlxCcWScGidTJTa4w3KxG2D4s1MGY6tocOPNWodCPwtW4SihGFE4Oamw0vTYgrNQ4uOKhHl8rZeF4oZxRktbD2S3DNZPy71maBFsCX8RX/cO9AUS91s86rhsHNqnDOtH5Vl1CMD0VC2ahbLqYtKvsPyPTM0arLRJTvzTdIhXJjxxi9HxtT4eVQnM91B9P5/LSImFrIVWZZdGsZsPFfVWXUid5kmgCLW7EHLPoq1TYTDPJbcj6dEojAXYOxCtQyYsL9lWhVL1SjlZdRysRTaZnkg48F/qrLemJBlQ3Kw640UsDRe8kIbBNxTIYuaJfMa2Ddi1SnXJWwZPFysOpEH57yDPGerep8Tcl/Zzt4wjxf1UijEg0f4c1tAiWKreuasuQgl3wn09D0VQk6imPVMijtVTImYTRDFo3lWe1ifmjGg0OLVzyWsDiHi5WXUiD894wPf8Al1DXaR6A5riHDEIM0pwhx8I2DvVEESUw2TlaDTYQQKsuvU3nbZRyD2YJpJuos3MNfRFnhcmQm3/sFJtTifnNdBEji0Kl61jSdYLlI0iC8d4Q3ZHpkTaiG5gTnF5rzV6r0tgaSZwxRrz2f6K02rU4FluG4bTUXMrBOSzBQfZDhzT4MmgjJPgzvT2CK11qkgZpxc+doVARsTzKaYbaniPz2vgj+JqkE2Iwm2FPti8d3xG4ymOgshbUf/5TnvdacbyepNv2XNTCEKKZwjT0QcLinFo9Qiw8BN+SsFW24X+idZ1jjybSaY9kBkEyuaq0bmhDYyyMVEh+4+f10MbHaCohFYTPtIPb793xoEFwt5+FFxMyetabRyyOIVENHjn4Z4Tks0YrOHFVvCmixxtV2Rkv5KfF0MPt8/JW2/pO/CopiZhm8IOaZg92u0bRHAxrnP8ACiSZnPcWm8SBCmv+miH4rBsnxBOY+oKI7N4QrQoPhuLSMlZdLWNxz6RKjBee4C1wmCpXsNWlckYTj8PA92O0TQ37Vz4gw5BEk7rkehrgZOFyZFZjeMinPDZxIdQpc1JT8JkgRcsmC9yDWiQHcJY72OS1b6EFGq1T+Md1P0PQ37V0SIP2CNd4MxeqIwzwv/dEKJLhNQhSSeFZNGM7SDWiQHcdoD4jblLFCK0yLUHY4juh2iaG/aufEH7BWsOvz60s0BLphxRnZPRr4nwtHkNrF3ohChNssHcojsoDxK9Sd+m7ud+iaG/aufEH7Dc39ZshcufRJRRlVQ2AVcZJrRcBLuYtcJgp0MmWIKumVq3cbe5X6JoT+T4gx5BHrS3AY0TJTaTiYnpCdBbITFScFMbcXxHui03jZVX0TYjc6hAi49xTNAn6LobpQbnRB2ujaNN6GtEys3m85dEugJ0R177vTuqnA+oVl1E6Fi3uEucQ1ovJTtG0Uluj4u8f9FfvhBgMtPP4ViJDLX59SS1rx8Jv57rMuJtQm4oRbmk9wOiRHBrG1JKdBgmxoww8Xrv2wYLZnE4BauEJvPE84qy9ocMipsnCPK5bMVh9VeyXqpxnW+QuQDRIDAd2RWdmUwsbV6bm2nzzo0Z4ZDbeSjDZ8PRgaNz5ncHr2ITaYvwCEKCK9p+J7zZFGFCgy5PhnH518eO+wxv5XggN4Ye/nVkBvE9NgwGWGD896RGZhTOclD9p/OGNHdZbliVaJswhwQ50HWnuRGjTZow/1JsKE0MY24DvaMzBrpqG4zJuTHZj5oxox9G4uKL4jpNHCwXAbihXPrN0jSQW6NgPEgxgDWigA73fLttUvCUz5kxIpm7ssxcnRYr55DADcXdduk6U2UDst8SDWiQFwHfENw8KeJbQKlz+YtO2ox4YadFiutOO/bpemN+F2IZ7SkBIDvmAfVRHe0k71+XIEn6SRssy5lOixXlzznv26XpjNjsQzjzKp31AHqoj+zcj6/LGFDIfpRF3hT4sV5e515PXruG6XprObIR/c9+Qx9KdO4mi9/lXQNHIdpMqnwJz3vLnG8npaZgzyw3jdM0xlb2Qj+579ePC0JkzKRTflH6Nojpx7nP8P9USTMnfSAqm6XpjNvsQzhzPf0V31KFdw3KGOXybtF0N03XPij+SJJ3wAFU3StLbOP2WHs9/PfkJoTxKlLGXyU0/RNDds3PijHkN+ABNxuCbpOkgO0jBvg7/AHjxbKJlOyEDlU/IlzjJovJTtF0N0oPaieLfhrW2nGgCEfSAHaUf9HkCHDy2lPM3pzvb5Ave4NaLyU7R9HNnRhefHupdVrGNLnG4BCLGAdpR/wBPkGK7CdEGToEwe+/dEiODGNqSU6DB2NGBoMXczuD12Q4bS97rgFrH7elOvd4fTyDEfiBRZAIUv37osZwZDbeSrDNjRm3Mz9dxy67IUJhc91wCtOk/STe7LkPIUOD/AIii440Ct5DfPjx32IbUWg2IA4WdU9Pp12QoTC97l49IdxP8hxHc5D0TGZJs7zXeuj6Q+xDCaxgcyBDuE7ytk9eg67IUFlp5/Ck3ajHjieQ3ntHZCBPCL0AMTLe63SH2RgMShZDmwWUa2f5VD01MvqCkaP8AwVLcthQWWnH8KwwTiHjiZ+RNUDRg/K+qaLyLqby1ENqIeFmadEiurgMB1BMy5rJ/4Kk65Cf33DYUJvq7ALVwxN54n5+RHRHXNE1aPE8zK8QTW447uptRyNln+6fFivtPPV5IB3spFWTdgclq3X4HrCHDb6uNwQhQR/E7E+RWwG47TvRPdjcgZXVO7kCH6SbmZcynxIjy5zjMk7iy41wKsOG0rOIuK5i/qBjBJvaecAtVBb6uxPkUk0AT3+I0Vi4K6rq7qQ2tJdwty5p8SI609xmSevzUpdE/7xqmL1awN/TJglDHE/JNgwGyAvOJ8jaocT/2TnG8UCbiDXdPjvv7LcyokWI+0924GSr0TXJyKavBBbxPTYMBlhg8jTKc/A0HorDPyi+XFd6bp4afgw9lv++5A61p82aO07Ts+QTYUJthjcPI4hNvff6LWXSNAgLp/tuo8QGTiLA907qV6ZlU6pMlEj6XCnBFGtOJTYcNoYwXNHkcudQBOccTTkhD53q2bzd6brR4Y7Tift/yj0iqpduXaRpUEv25NBuQYxoa0XAeSBCHupqznfu9Eyk7+XVO4GkaS2Wj4DxoMY0NaLgPJBecEXFUVrE7vR4g7DiPv/xvG6TpTZQey3xIACQGHknVi5qqvpG80iF2pWh7Ijpp1rk3StLb8O9sPNSF3kkntG5T6JY473Xw2/2eJUcuW4AAmSm6Rpjdrswjh6+SplT7NwQVvAb5+jx22mO/CJAMWBhEA/fq3ICFDNnF5uCDv1Y/jOHp5L1TTU3qaAGKDRhv5ETGRRc1p0d30XfZfC0ljh9QkuOF90NbpLG/wiaBeHR3Dx3KyxoY0YNHksvKJNSei0bz5hkOEdH0i/zDYHE5T6JY4+YC5yLiZzUlbPt5hst4Wqal91LzBq28R6eZv8wF32Uzj0WyPTzAXG4Llh0S+6l5g1TffokuePmCQ4j023e3mAudcESVcq8I8wuY07LTJTvUhig0eYNS3jffyCnLZyUxhgrTuM/jzAXm/AZom9xqSmQxQ5rXESHZHmAvcZNCtS5NbkjPiOKsm5vE5SFB5g1LDsNv+pWnCuAUpWi7h5INHmDVMPxHY5BCfCiZTaMFaI2j+PMDohqcAnOdeSmtbTNCIRJuAz8wFzjIBWC6yxp2Q4UQ1Y1bjlwlZy4nKQu8wQ4TBR1XFNe5geMWlatl5vKkBLzA6I+gCLXO1TfoTcpYrWOHp5fLjcKq2HWWC5igMMKbMQ03oVmzmFW7zBZNXeFaxh1Z8K1LjXHkmta2jblXiPmAxJESNFZLfhyvTms7NCc1aNzfMMiJqcOnIowiLJBqpC7zHOVf86H/xAAsEAEAAgEEAAMIAwEBAQAAAAABABEhMUFRYWBxgRBAUJGhscHRMOHw8SCQ/9oACAEBAAE/If8A7c5qycX4iKPbi/bFjvKpUoiil0i5cmrJqhO36QEReNv/ADc1KONUap/7N5nBl6NUeAzkuWkCtf8AmK4wu0e4Oqz8y/dK6n3loVm6P5m6i0DbE3ipm3GeV+GolTvzms1xdPgvKoeT5CMoi50ToRoGoE3ShLZRa6D1m+2WWfOAx6K8qGWGsth7JagHLL4Ydh+YHQWmZlDo11fqEbjnOIW4lvFHpNQlByP9S9pybflGeQiuTWUx6zk6DWArcXo6kbSaHRgvKAWCt6RCAW6aVAXKW7uX+6i9XpMcAdjEp5O3gOqKaG68EQb4HFdytOAoHYvMUWjtjSeRErTeVMzWi7CyJ6280R4Kuw1hVTb+gsfHT7nR5rN1npCVgo25XfUOUJiHnSR92Uxho5Pl1BOV6FSxcawfdt3bB/RVTXILRvULmgLyEq/VAGmIpqPlCq8yE04eSvtKC16t94Dp+hYiu2vGyUUxbmGNV0WL8RXVY0M2Iv8ACQQddzwAz8g6+SWboaWg9hxLBST5kBST6gWpMScBkShbPzpQuNC47Bj6k6/1z8wxmZp+rxHxlhsyEZIqttpgpxVauPKPKg7PRE7DxoT50wfzrFc6mN4uGMymlgUxJlfildRGmcXEPB5sNfjuW+AEXT8XBNZeIssYGdYAZkoW03McdSsMij/d6y9LV42v6lJsjfYwXpcO1R8stS7TIFxfaCeWdnl+Pc6J0jhJalHgyekRhUOjdwenlgmfWArdGpmCR23Pja1QWrl7ep9K9g4INRU5DG/s2/c7/wAfpKjD2UJK7TDi8uR9Ju1IE8rujN1lAlhpuShAXzlvcsF7RDjRhh8nulIHIaeaBlJ2zCrGRsdxdJdDJeXJq6nxl9Qf+16icaysFM3cyPkfOWgsCnDq9YP5EMXKPodv6QSMmiR0hN4wfrBgOnSWiePqosrWsu8snVio1W9WOI1P3YOoorzk9M3191zImzuS/OyB+ZhY0VjVI9MC0bOanGoz+vxU1QDKswwh6/kTJiXhfaNzbW8Bp5rqWR9WtId+bYEijhmKowIt42Gi4vDgQfdflGEomeg78wGak2zOh3I4zuX9JxZVfvGPS/alrazW7SwwV5r7vdnpk1GJtmq7oxo5DBv5QCtRpRUY8EZOfibh0rViSotG7uzNZc0wfMin0YfKXZTN93pDAnHkDHqS+M96z5pcQ9DMleWW3wt5QGr6ysVpG6G2xo3o6hU6qd3NALep5oS5l6e6v6wa3NeCw7S5ElY2mmiPdyWVHQ8M8PlLnByaTLCs94R26/iRDWmh8jWaY9gEL2GsASzK3m3KWvDyi4Q6RiAzXRpGcaB6QBj25lbdOjNFtb8yzEtBfIZ8yGig85pycCOPOLj14TZ+nzSo3RV7m4xLYO4DFKzXq+9V0KMl9yUi/O0uZ9QnvO9fHHxE8iVT7REHnyJnXC8zpHqLcWx6SG6Vaq6Ts9x6aJpqO28eIW1lgtSEGsl42mjLYwviPmcMcu9TTD1UXuM84bzIw8tZ5TV6Ll05JrbdXf3zPYGfvCYvC11HAZBY6k+7dnfxDvXPn/yDLjGruQecvTVDbDXuBCstTNjHERlGu42ejz9k9QhBM0Ca+Z3N0HjFYLyuZy36lwJVKqUxkw11bLkkrZXtNKbgYjkI3OIUgLsX362wdQ+5BbDTp1LdazW5zMlBh+H1Al/MD2Vbhvl5ohBd7j/xG2T7wdOGo6kEUzxN40j/ALiI2J2JvLPYi/klb2g5f1KKkDMmikMxEZVvwuVkSs9HzgVrub+UBAryu1mWv+s+/Jc5rrHb+ofBVfSDag0P+0jqeTh+HMRkTdHFtvONTzFZclZ0mTiV7QSz0DfmVLuiFYqZD8K7/wBRHdCtTRigstHEJwEA9Yt+mbt4JcY3xArJWlvEZwOtvX38GRY4SYVvB+kHNU83NJ53SmYrH4bpR+2zqd/aK7RtW8y+wPYiy4BxVy7aaVR9SX68ziLYWU+rTfI84N1GqlfXc8kqqsEWoV51CRA9G3mOSLgmuA38AaA2yMbO0diHQaZnmpa3bk+/ww+SL/4dx1Cu9y/eWQqGWb/M2UMa5mia0qXrfOaJl3eWhjpVWvnkKuk1bm5EyOmiG5GpKetsRyQ1FosZXzM/qPgQ2QY/kQQFrrOJtpeR7jlotC7nwq4R5J/xrFRu9kYawsRnaFZjE1StWpEQoNEe0JEmXO3Dgi5/SijFFiVDAV5TTMWGGhHMNS5nCinpxADaYPgY6S7pv1Abu40jM9621gjo0cD8IEbufT/GsBbZNa+wPsXMtepX/Uwm/CHKVTFiKpLq48XHMZ9puYxqxKF43lO8xKXk9MSiV0f9AfeHq0ofBaZ2sDnmC6tW7LuYbQ0CDSz4LpPlRD/41js3mIxXEgXF4i1DOkunGjSZit+0F+xd00ziZNFDG0BPkgVGinoxg6Gh3NNJD4NVcdJFoi+wRBTHStmXKflPgigW4ITFM/5h5xwWWOvstYGOY+ybLfeGhxMWHWMUd+0Fo7vCKmCiZmKrmJKYEsvY7AQ406qtPI+EYe2nZuRM0VD0ZkN8k8/OMXYWPwI0QDKu00SmUz1OvvFdXWOYDfWszYi3C06pvHM6fnOLmZuOEc3vLZZ3F4I6VLxRqk+iCIax6xmVjpU23XqEFVHwkdJZo+kdRody+GWo7p5fARfjaqAhZ3gsMEbCwsYblQFNPWcUSrq5QaTbWKqlrNoWXIjn5QcrC+6aMPkwAqOqh9oZYOIdBMDvgUoKPhWLp6Dc3uUJx33IqWNj7+KBNiCPG0Wh7/pFs3LYtuJqy6VizEw8VMbzKekSMWVj7Byxct5uvo8sAUNzn+ojW9myIW8RX8kVanzDAQj/AI4gu5OqDiYwGD4ZgymquNYNtUbNKmaN5H49+M0tqj5uG9YFbWZjLtjrHRUVZSRj8hHExXnMmIrcxNrs9hfyQ5UOtpzLnZTV+J77Hd0zMhYK6uOss0eZ76FYXquDljMuw1OnbyxEsujNIKIw6uXGIWVpZFXd3L77i7Q7nVmNXENsWLTD0csEn8wuX4phS1a89oA7xjYhTk/Pvhjw03PBHysEcDntjN5l0YG2DdNCr5zMxGwTMx5EWtIwXcvjcEAVfLWep+4BEq2XxajbsAPnAJgbtydeL71QPNC9ATQQD0CiPWKwswy5NynygGiHYItEWLF2iZl0q8SjUdS/1A8vRUB8XdONP6gi28djDqNhj3k66mNyfqXmDg/REda37NblZ9jlKKlVZhozSUxtRNm4syyxH2Ssuba4f6w8BqBQHxgJzKvWomuMb4Jh0fge8OVC4nL28EvXj0Dg6lpl0fYsacdN+ZW6TylB5ezepmWVHWlErcz+oPUBmBQG3xl2Wmv6R0NpaHmZapb/AKe7vPYrIEF7aqInMtl49iPE5o22jAVbuMEK9uESFkFqDk//ACQCAAYA+NK/PftA4pVZec1fT7e7Y/VNnd/UQjdoyywy6bMq4zwiXNsryI6BXTaKXXrLYrZUVlRRBw2qE1/xpAor43Zw2vzhoLQKaXDZN/wPdX6Pkn9ogB7RasRTLNBPulnzSoVI11MaIDjPnFUxxYmX2JEY3hHEV06Px8dr7bfn8xUspolCeV+vugVNM5OpCN2WqxEyz2GWbsw3UwLw17DVu8KLMIvhBCtKlqLV/mHr49vdbMTO62cJ1Sb9yWoLvKhp1+0sYXLGaprGXIgXLcJnlnzRI4nBG0DMviCVOAyssOBf117+PCpo8LfjJ85UYrOG20CivcQZIBqs74w/8HcUVYrG3spWIODmHUCIl6XApQVLunclsWpqx1iH2UBlY8slvp/b4/lSlg/3pLi1CiKzbuPcQwEtFBKO2ANPU6+8Zq3GWvsNZiXxxekAreUGCXoS+4tdwiwR766GqwhqYHJ5O+/AGHaGx26TE7GjyQded319wPQ9qoIquzgf6dRG5lzFzGK2K6aQqbLvR4gTCwo5jGjFoy3FmENCOVoFrDCL5h4O+/AO/mLyGJTRbJnneYUpS3r/ADhXLZgiIP8AkA+UYK3N1LjhgrExccEpNJUJycxBWXziquaou5ZtFDlW6mIJOgceAWT6+YbSpb1Cs2JGfeBRX8wLQuBKq7u7wjMuuKZr7LXQ6aXzHu3bTDhMEs3lsC9vZHKPQIfIHr8BAwFw/J2lZLDVL274HZX9fzCgBaur0dxyS/7nuc24rPNBtqWi6r6xrIabnOJYCv2iF1WKmEcNItwJeiskoAgOgB/WdeAnSUa3foUAvKcFO552b+Uqe9dV4DeXacs9UkvcUS031FODPHsOZvfPErVocypyHpLDhsOZh7jruNssl6MW6uBy9Q+QXIZejrwHQLXzVjsxnRxEQUWOiCgH8joO2ZXohGG2BruoMmD5JM9rKDdx1CUzcVf4ubJPUTiA1znSalKMpxMg2qKw5lua9w3sOWHhH0Mr9eBCLcY5UUt09HUc1rG8u7/JgsbW5XfBHSugNHgipzcVivX5wLITSkSaveT6pBiFr6SgM+OcHDnzIug9Itu3MczECO9JbFvU0eWFdcG1f68CJZTFBcbsBtbAtKoxX2ly5Ba7/jWpPZ/r0jcm67HR1H3S6LbKl+IqyqvKWmq6XvAXG/URbrD1ZkfKPoR1S6O4uqtdI8szVdV1fArq2fQDSZxNAd+5eNjl06/jbGHWkukoCWdcSyWTVlLVzzU2mPDKgh89MjGYrmEVLrS1fiEuWseVBspBiROsatq8vgVEqFq7Ty+TraDwhVkoVpmfj+K3QX95FQ3Aay7VxfZmsSziYNMczvigAvs1mk0eTmdP9eYOLf0xqnhHcBrvsQFiaWkv0P5YOHzw8vgaifl+6VWuhNP9UrC6h0QKK/hREdMpozcrM3M10YwFFxFxGIzq3JqyXhGORpMhfpLWAzNr/dMG3IjKzUsNKs/2O4WDZmq8vfgYmSgysv5mr4iw0tf2h4g/whaLmqGa9HOfVLDMK6mgjSHMmYNCH3v5swKBOJSUV2zZ0I58xJe68yJgNoWLRzAG8VA8Ds8r15N+yBWhl1+qAQYDT+FvnUzh9rjsvVlllukHPObTi+0KvXaE1gRGOG6TXzNaD7BdnKIuMw4hvehDp/QaDwOlFK1hqU1DhxMGLCiYz43p/EZSh70HsQVNRzaYbBvYlCCWwzuSK6adzQNPc7plmVl8ux+Rk6MN63zfyg+nodAeCKbfc125vSLSwLPqEQFBt/EtU5/rAt+wCFRI84IORVkza1lDW5Xd6RblqxVI9o7fLL6r9QdD0OgPBGgL9UzqK2wgpM+N/wBP48yQr6D2A1yxUHeW/hFlmOd/lLCXcuiqxEwXyuv9YTY1AwHgnMebNbsC+XEpLNx/X8hVFj1+Ux5vvL+Ic4NVDeNSLNSMpQVAir1L63qGAAMAbeCSEdoy1rnWXKC7lbuZ/kJZGGUvAt4siiB9YZ+01aI6NFAFtwGbr+oduoFFeCSZKDKxX2PkSrJe9Qrhwef81X51jCuTuMUfDfowOiMMWWDGInCd1sGvWjsDfP6Hgsf1g8RrfdNbSpoAfzkZnwhYxoV3kKnhTr8w1VfN/wBTSE3F/SLc6j7CD9HFQPBe1RocstKRbHutDiehx0eILqZfdMlU2Yw3yQFeIBd8WeiagYgHcuiCHnLvxAqWmhzL0RTBIhR42/nxAtSq6LuITRBeg1XUMhgPEBXnNWxGdpcYCph3mXiB267OWPGVV2xisxmEeIK41rREmnHklBF2hqoRDQx4gxq4HM3gzQ2DLtDpxbV4gzhx9EVtywBGosviB+3Yit6uDgl3q7lAB1F/ECitvEFaLSVpBQqWsIHavlNtLV5fEAO+LIlU6TBuZWdDb3iVNDpw48QZVtPOiabdqFQeTlyw8HfU78QUGDaxNZWq0HPnCQXRFMG5Rl6gkKCgPEGV12Q6v1CW3S6NJrcezB5nn5ry+INDQ5ivAdrOQocuoNID04ceIC42OZjN3eVl2uBl1qyjSzfO58QFUNas7uiJ2ykauyv9EQl1x5eoYhQwB4gvW3MaKIGhjBrcw+4H6QFzj2+IG4p3EoI0bgvSD5bgNeIv0R+/h/EaFol2X53nzGM2b12zjEpt6l0W8ShrZykAUFHh+za8wdWD+cRVxDqtrYQ5m075j+aXxBdwLbGGsRVAWOe94lXxU5bj0jeRXb4hpyHDKStpEjTrxCZ0PEYwALVrX/7Q/wD/2gAMAwEAAgADAAAAEPPPPPPPPPPPPPPPPPPPPPPPPPPPPPPPPPPPPPPPPPPPPPPPPPPPPPPPPPPPPPPPPPPPPPPPPPPPPPPPPPPPPPPPPPPPPPPPPPPPPPPPPPPPPPPPPPPPPPPPPPPPPPPPPPPPPPPPPPPPPPPPPPPPPPPPPPPPPPPPPPPPPPPPPPPPPPPPPPPPPPPPPPPPPPPPPPPPPPPPPBCDDDDDDDDAAAAAAAAAAAAAAAADCAAAAAAAAAAAADDDDDDDDDDIAAMMEMAMIAAAAAAAAAAAAADBInURRS7/AH3ZTu+M/DDDDDDDDDAABTzzzzzzwAAAAAAAAAAABl3qoWqHFtIJCINEdac8gAAAAAAAAABDDDDTDDgAAAAAAAAACCimc+EwbDKMBAACABBCZ67/AI480044AAQww48004AAAAAAAAAR9SuVpFng8oDAAAAAAAAAjwI04w8w04AAEMs80U4oAAAAAAAAXQkVGYy3jBSmjAAAAAAAAAwo+w0w4400AAEMM88888AAAAAAAADsE4JcyaxbzCAAAAAAAAAAAIQe4OIAEAAAU88w0ww4AAAAAAAAR7oSPbc74ojAAAAAAAAAAAwwwg5/4wwwAAU8888888AAAAAAAECowl/7DJZ2RAAAAAAAAAAAMMMMMlZMMMAAU8800w44AAAAAAACC0IsUqC7fXjAAAAAAAAAAAIIMEEf3qEEAAAAAAAAAAMMMMMIh+QNwq3ZyfNrAAAAAAAAAAAAAAAAAAjxAAAAAAAgAQAA88888YSEFK72MsO1Vw4400w4400w44QQAggQQrJgIEAAAAAAAAMMMI4SsBU3Fusdte88888888888888IIEEAII3nIAAAAAAAAAA888KiYl5BvFVsMMMMMMMMMMMMMMMMMAAAAAAAX2rAAAAAAAAAAUUgOwBc25X3Qwow0Qwow0Qwow0QwowAAAAAAAAUrEAAAAAAAAA44sMxtBwpf8APPPPPPPPPPPPPPPPPPPAAAAAAAAOywAAAAAAAAAh2ONfeMCn/PPPPPPPPPPPPPPPPPPPPAAAAAAAAGwQAAAAAAAHgoHLUH41GyDLDHDDLDHDDLDHDDLDHDDAAIAEAANSmwBAAAAAFFDJMfbx76sMMMMMMMMMMMMMMMMMMMMMMAAAAAAABlgAAAAAACqmNHeaDJbPPPPMMMMMMMMMMMMMMMMMMMMAAAAAAAFIgAAAAADtFOPMRBTrjDDDDPHHLLPHHLLPHHLLPHHLLDDDDDDCNDzEIAAGkiAETardnPPPPPPPHPLPPHPLPPHPLPPHPLPAAAAAABRiAAAACjKGW2D9ezDDDDDDDDBDCDDBDCDDBDCDDBDCDAAAAAAK2wAAAEhnINZF5fwAAAAAAAAAIIEEAIIEEAIIEEAIIEENNMOON8UOOBFMsAcDVGV3PPPPPPPPPDDDDDDDDDDDDDDDDDDDDMEMIMEhsIMAKEreT/zvQAAAAAAAAAAACABAACABAACABAACABAAAAAFW2wAAAGv7/EkyAADDDDDDDDDDMMMMMMMMMMMMMMMMMMMMAAABDvQAAAAFXkj7ZYAAPPPPPPPPPPMMMMMMMMMMMMMMMMMMMMPPPJPv/PPPBEKEWy4AAAEAAIAEAAIAAAAAAAAAAAAAAAAAAAAAMMMa88MMMMAAAAAAAAAADDDDDDDDDDDBDCDDBDCDDBDCDDBDCDAAP7IAAAAAAAAAAAAAAAPPPPPPPPPPPPPPPPPPPPPPPPPPPPPPNNwcsNMMOMAAAAAAAAAADCDDBDCDDBMMMMMMMMMMMMMMMMMMMMOHjePPNPOPAAAAAAAAAAHHDLLHHDLLDDDDDDDDDDDDDDDDDDDDNSSAAAAAAAMAAAAAAAAAACCBBACCBBAAAAAAAAAAAAAAAAAAAFycYIMEEIIMAEAAAAAAAADDDDDDDDDDBAACABAACABAACABAAHBd0ACIBEACIAAAAAAAAAADDDDDDDDDDDDDDDDDDDDDDDDDDDCGxPPPPPPPPPPAAAAAAAAAAMMMMMMMMMMEMIMMEMIMMEMIMMEMKjUyCDBBCCDBBEAAAAMAMIENIMOENIMOEMMMMMMMMMMMMMMMMNvs8IEMAMIEMAMAAAAAAAAAAMMMMMMMMMMEEIIMEEIIMEEIIMH5uoMAAAAAAAAAAAAAAAAAAAAAAAAAAAAAAAAAAAAAAAAAAAACwMYAAAAAAAAAAAAABDDDDBBCCMMMMMMMMMMMMMMMMMMMMMMMMIhMMMMAAAAAAAAAAEMMMMMMMMMEAIIEEAIIEMMMMMMMMMMMMMMMIsMMMAAAAAAAAAAPPPPPPPPPPPPPPPPPPPPPPPPPPPPPPPPPPPPPPPPPPPPPPPPPPPPPPPPPPPPPPPPPPPPPPPPPPPPPPPPPPPPPPPPPPPPPPPPPPPPPPPPPPPPPPPPPPPPPPPPPPPPPPPPPPPPPPPPPPPPPPPPPPPPPPPPPPPPPPPPPPPPPPPPPPPPPPPPPPPPPPPPPPPPPPPPPPPPPPPPP/EACkRAQACAgEDAwQDAAMAAAAAAAEAESExQRBAUDBRYSBxkbGAgcGh0fD/2gAIAQMBAT8Q/gm/sYIoEB1n8Mu2sRWhcXnCD2uAagWjKexLOCKmYd7JqMxKw+BV+JbSpdXJACwx8SrL2fG5Tla/JCK5dP8A3BLwTAC48AI7yim3paTSKbzMwDhmCSZjI79e+JouI0w9MgMQysRTaaOPcjYeez2Yj5k5+IlNPo6/U1WGBlvEVT3btRjukKDK+8yQQWmftuJ5LOgVmNVsNP8AksyFXhjiPbH9T/kPpCjZC95DFu4j7kqBCFRebldMtTLEUyljP7mcdJxLOYNfkS7+/wBwsDcW8vqW/ugmncRU9w6DDEpxBMQzHRKZZWmOBmYJVU6jYOMTDtYpW+tqWCfmBVPbjTcBxCnoo6SEINxv9yz724WCUb++wMfhlCzZ3NQUg1KnpMYhpckua0wr7+xrU7J/odwYnz0XLHZFZFoeGOVtv8Rby9ixQMATH8dsQxPtKqBWCal1Nt1oirl7PBumWnLjtTqW66BZ0KyHZdrutkzZz2ldKxDEXiZVTDVzOrtse6cSxPJ2R1MzW4t90NNkBd7kSsdhXUJozFvvHaQ0Hz2VxxuLfe/+339fVfUmot98Km7T59WvoGot98ZjiPYi236ldTMceAoiXD7+pXXW4p4Hc/tNHpqj0Mxa8FUEvn0jruLXgqUlr6zXg8q5lqHj0anE56OPBuQ5iB8ERK+s6X1uvCALTHT6glVKlRIRfCNURQvYl0vpGEq4dDLOA8LWWlmH1EuXUu+i+3hft0K6Lbb9d9LCLfhQvEo1MJweQ5ErUeQuVMCWL8fuVKljR5CqKnz5B1HSLbb49FREBC15D7kjMHkP8SVLdxby+PWriUsYIljx4XgmBEwR149HQuUyBSfPnkNauCa0Iz/wIf/EACoRAQACAgAFAwQCAwEAAAAAAAEAESExIEBBUGEQMFFxkaHhgbFwgMHR/9oACAECAQE/EP8ARMLZYcsfzMvp9yVia/t9JkFmkzFaRV3UW3HnZX1YMjplzw8G9dh+XdBAKv8AzMO0vX9RfSXzEqjb4dRRZx8OjDLr2Op5ICWtG7VNhmBagBolSibYmcMTJ5TD3CwcPPhuFLtcxXb0dQRau3wggmeh0fMwTgfYQsbHp56wQCezv9zJbI/wYIlnNj24AQ5iuzMH4SnSUynUqZaIsRt6f9IhRtMrx8Qb+c/zPxz+vaQSmL8aM6dQDzJevpFcbZrE6hGiiXrCLR1ES7g5oi1j6MXDqvwxq4BABR7vM/EA2cwVqjMoJQwhTEKn3o4GpQeolxM7/wBpkjgM+YYCg94dOYyzqCCzlwRdYJvogNJn6ZkqXqiVWa8zOjOO4Ma+/IUfliPocvXowXH5y8xKVzGyYuX7IawDXn9ciz6DL/wcrXqxPQUzNAEDFYpnh0+f1ABRyJtBLUz3XkwrLFvhZUti4WIZGUigxyeTNk3nJVW4vrXqsrDBD0iV24YnpyuaNMwb05Aoi3xnVAaumSw/MMo1y1+/Eqy6++R4r6QK5pLKYmj4g2X7uDhv1CucFCO08e5Vcd5ogVzu/wBvBc1riv0rnlaYKDx7IXFrXDcZvUOe1N/lgUV7OuF9N6lc/dMoD2b4mZdTXYKQnbxguOOJZuBXYcr8SsOILjx77FcMpR4gjx77HYD0lIvr7jN9jNlAfqwABwrfFiGeyXNJ1PFcv1fQOyUL9CIhw3F4Qvst+ErW4ng1A7LUjQCijjsamfiZgdl1LkyXz3CsqZ747hQuZeIAo7iqy3uFZRLVvcBNzPcAKO3gbYxbK/cMYaJte4VkH8RAAo7fbDL09PAAdvUFsR/pRV39vNlA8y4el/D9JX6juBarNxIzC4+P1APr69xr/K//xAAsEAEAAgEDAwMEAgMBAQEAAAABABEhMUFREGGBIHGRMEChsVDB0eHw8WCQ/9oACAEBAAE/EP8A9ILly5cuXLly5cuXLly5cuXLly5cuXLly5cuXLly5cuXLly5cuXLly5cuXLly5cuXLly5cuXLly5cuXLly5cuXLly5cuXLly5cuXLly5cuXLly5cuXLly5f2uZnpmZmZnpmZmZnpmZmZnpmZme0zPiZ6Z7TM+JnpntL7kvuRC8dNjcvuS/aZnxM9M9pmfEzPiX7TyT4l9yfEv2nknxL7k+JntMz4menx6fj0/Hp+PT8em+ly/qVKlSpUqVKlSpUqVKlSpUqVKlSpUrpUqVK6OJcMwvFw8uxXvK1MUYLwa+VjDixqC9UTfGsCEWb/AGQ6fIxAoCqzyph8VN13mrsTUfeVK6VGkQQNuD8DMswd2gPwlHA7h5wDfzMD/KZLwF5YuarNNnsCYLE4GQpzRmNUo3Xl8VD6oshqPfL8RzHpXTtFgEJYHche0PKRrAUcWgw/e+Wz41joqacV/p/ExvJf4DTDJtKldfPTz189PPXz089fPTz6a631v6ldK610rrXSutdK6VKlSpUqWQzKihrAcT41l3MXy7fpa3q2quqtrFhg0WK8Df4g6xw/JeEYaOL/AJB/ctINUXfY48xfe0sewZk7kLGmWw8m522jIhyqATctS8Hvomq0mM9v/IwVnUBvLoCVN5zqfGsHHLEOwwzRK2UhrvY08IdYXQa+YMgE0xXzUXVw2dfZZy/Qf2YAUZVULbveIqV8nQOCsQQkbNr93tMktIOp/Uu8xVGf9kcKUaar4dIM2ZUIDve8ZlDEEb0nEAVCZT701PzDG4bYnubQzPHp8enx6fH0PE8TiczebTdnE5m82nM4nM3m05njp46+Onjr46eOvjp4+gGLGDOyDdhze1VAfku8ru2o/wCl+CCB0Z/AbPhiIyy9e637vGkUbkZp5uH0bhPnG4JTdl0Pc1PiIIoomLsLhqPZDofb5ezBLqxQTlNx5IgnPZRXu3aNg1GnApu5NN5oMsRsLwYNNEu4NEBi0pu83YmjRoEzhej2jILShXfetYyO7gj80Tkggovg/uVCpuEfzcStve1v4qZN/wD31uFACaUv6hoC9jAaAOAqJ2h5RKArhUIbCqu7+keamDQ+LS+7aCVxYpMJkyU3ayyXgEoZg4CNDf2KdjzK0uqmPYtq/MpJQWHTXO54mhnh7PTXpr016dpvNpzOP4S5cslyiDeMluB/ce6LI9l3eWAc1OIlhhdtodU2pEEBqM1c9xMkEdsG+VqQqpiwsMONYIW8euPdD2R0lf1GCe3baYR4X+RG4o1PuvxFxunczXxNSgBGbbPaBuNjH3ndpBIan5q9AtaeIY3fL+vP5lJZGzv51lnS5cuWS5cuXLJcxHMXfqm8zs+SPTDbjRPbfx8SwahQj33qVctUfst/uNuKiEvtok2GIGPsN69oIMSpUqVKlSpUqVKlSpUqVKh6eJz6OPRvOPRv9tnpie6ZC+2xyssHsQzuUbneZ2fMMGap0iBa4IEwSpCqdq0i2nzLXV4sMPuQ9HcI26dnswkqYBYmwanZzEiAoxac91APnjfsfCd9G41KeGlo+P1B0djC39ZiP6tVtrb2gmjYGJl77vEuyZ6Z656Z656Z65iXEBUFfBT/AFFAgt0vuNfciFFLrEvRuKo0AVDIg7TJggMs4L1O2030hH4eGX3l95cuXLl95cuXLl95cuXLmn0M108zzPMzzPM8zzPMzzPP22hHm0qqv4Buy8FnerWA2CCQThAjyJM8fivzv/GH6a1MnusnmYqjtDG6uopWQNaV5mlVwT3SxERIlropdE4eGV8kZS+Wu3G5KwLWQvLc7dppJ5mz2eRhNIgvVhdQtiHK1DhPbT2Za5Qgmjz+nxHKsJe+/wCb+zS4Mac6HaH9kD0pgLE5HcmxqbkNjte8uoYtRnTT8Mc1Ktw/2d5UqV0qVKldKlSpXSpf0vE8TxPE8TxPE8TxPH2i1iXFhD1W1jSNB+YujzQ0bAbBsRGXC3Yv6j0IuLgL314U7hbsW9oHguUfYeSJ3agXLdw1fiAVe12J7zDPMyEqogYTQ3mY0AbLkSzlqPgnkZcTU5B2C8POzKy1rs3io1YuCYVkfEBV7bjgdxgpcpf9akKkrJeF9qsJrDheR2mXLti9hswJp2vAib1GlYw7SfIPEPCFwzr37Jr9bx6bly5cv7094qVAG7LYWwhb/Q7vxN8dCb+KTVAUsPvdzKY7ivjI/ErpOxj7Gj4ljqqyl3GHizF07yksOCokBe8HaOK3VLnG0RpoLQBb23igccwAKzuwECZf9E08QxBPAZZxMYwtKKONUkAEpTGcaRXSC1tTX/MpbZCvBh/qMgfGNk/UUiV+nB9sDp6HYkpebu/8p+odWeA04PvK8DZQL35YC0jODmg/k+7+PT8dKlSpUqVKlSpUqVKlSpUqBnQewBlZWxocAP8AybRIgHnGYG2SVYNRNWejtvuv8QA3JVj3aS3QBdkVgRQvCGfnEYzjpVfZx3JeoHYuMwgmb5lqLouXv2mYQYbx3DMFAKN/5yU6XAbCZFG0DgBWINqrK7whsYUBbiIkg2FoNH3jgSaG3by38Q1VWbtjgfzGGsD3QiEM/uowLyrsE0YOPNGv25MgRwiaxIhgRfc9naFetXkb52/3NcqoActFNxjjGaArDVDZ7fVvrznpnpmZmZx6ePtmU4O3zD9TB3EsbmuCngmq4Jb0XnNxzWstgcXqRRa0lgcvb3M8kun3BydkmvN2/AbMSxlsxF8MAVSYOkKxQMRp5lv1aNsv+AwJ0o4Fw+9ynKruggFavCPIUGRL2PmA3wM166kIbwUvHVlRWEOGH9Ra6poKWq2hQr06P+I0Ptbl6S5cQY5bwjwm4f1KVeOW8naEEBYbL55NIwxChe4hzyS5cvSXLly5ekuXL+nfS+n9y+l9P7ly5cuXLly5cuXLly5cuXO3M2HdtcQG4QX5xAhNLzpJb+YaLUR2x97/AFLdSNr5EyMwzUkK0BFdjjmMegxWHhHRHnSI9KNh2ppG2nIGmdOzDaeBf0zA/wABCrvUG3FnmO0xrRuoD8p+RmhJtg4SI+KlyTtAPUstqGPyEuJUtNxf/e0C8pUtVlQHcUrU10xsdp4niX18TxL6+J4l9fE8S+vjpfS5cc4g6aMcJuH7JcJRY3GdZZMEJ7DztGbANCqYwP2bdL6XL6X0uXDpxOZx/A630j7D/SFUyK1JY0lbb7K2PzCb2KGBFYF74yMPJk/1FZ5CK+vFg6wmwOSX6LrZ52YxKYiKaVL0rsmR3lBpCiHU4xPZWzJzWycQCoGBoIDaegdB110eGX5rM6aaWjN6e5LwpJUAbnGNfmHgjADfKi3WDlqVBA2JeYHgcts7m5WSIpjrdvF2136XLly5cuXLly5cuXLly5cuXLly5j0XEEcGkOjC0uhwccnmFM5Indn/AMlrTVLImBzjCTZ4DdHk7Ms9FzHo2+l5m2vTzOZ5m2vTzOfskzwg8h+oKBcmIaT6rW7fu4Jbn0FqjbN3CTJeYaqjuz3FVweOILW9rV7hGaZ2jT3mMRdS5c/8NoRxeUAkNQUJZeaEO7L1N9l5Xk9ouQjFRJIEFVpz8a+JrFRCA3bjI/mUzPXtGuWXzBY9MDL4G/vEY4V2MQsRj9H9OlSpUqVKlSpUqVKlSpUqVKlSpX0ACOR2ZqjVBw71DlfhmVU0W07BK0TEz61qC7yIaqBwzgXO8fTZzOJcuXLly5cuXLly5cuX9lXfSMmyRI5PtWlbR1BKFq7rEejXDCwHDtDyMOOCa4Va3MdOSaKKMHRw8kpy8bdIVYJlzr3ioiRu+AYYuAGB47RBbekaqcwWaPS1lNviJ8LVDmGtEaNIHguVQtYH35U4ItekjBOAaB7TNwXE0Lx/D+4affH6Oo0Tcjkm1Q1XL+pTLpwsrr8jG7gWGO52TNQ6Rwtz6fM46fHX4nxPifE+J8T4nxPifE+PsVDcicGITCpXfXnhzo+RStqW1eXvMLN3lgrrGLMAIe0cLa4RlYO5UAC12qXLs5txwMwbt5XK3GYCi9oogoZyGt9x+oLJFeH+5jWGwUL/ANTHMxLVw2MmpY8Q1YxoHZRyOvOsAUGhWYhlJp4KzRy4hp9+Smm3UpaIkxR09zeWa9OD2E71MI9S1Tw7OLPMES7H1nW5f2Hj0+PT49K0W4lMvPNsMpzyNNoqKlcivLGtazLety5b8JCUawmkW6O02TMZO5graJpawwppUudbKdjYyjKp4jm8VCD0B2br0ezqS/kDGQP0S5AuJ61CwTE+AXFr6n/cSusQNEdJlaIf8FsOMKgN+73/AIEu2cgZ2EiMIBNUajvswg0Q3JQsTi9InqO1QtnuHyS/Vcuvp36b9d+m/StQsOVreIpzyPYiTWVqt3LV3ceg7bxpe0JAMuRTWM7KhMh5d40ajRjOpCgGTmtGJIBahYe83i+zNojGtgubdg2kZMzPakOasj+yEiGkOiRv18jRmrw2QG4AKYWtZpEqvEr/ANzhZr3/AEQ/IV9wLl+3S58S5ft0ufHRNrg6iZf8O8VoOAVLwkwcnoqnetaye02cwn/g3Jcv26XPjpn0XLly5c4nM3m05nE5m82nP1loWPUIcq1inPPgTF4ltLXXJrEbbZ+5eaV7y9f6llmv3GRHHdMQU6X8Ii4WNU34gDFfSIlQFXqQuAjQdYzdmdr5gkdi7kPSCtWhcvZtyttCDrCn3gNIYzLlPhH5jMV5qWBWpFYLQO2dWPeCpyhau6u68/wjARAwuC2PY/v3gel+EsLEp5EuDgAk1Q4T2/UMEESxOPVefs8dMTExMdMTExMdFBbpLTjtu+CnOo+BH9VZjN6t8xbXg4mFznibQus4hO8LuUtlWXTMooUw1QYW4lShra94uKqtZdR2iD2glLmT0bGiAa1qrnEZ3LWEmBQXYGVjWTPIMJc2C1sF+IA9GfYKP16K9NemvTXprrUqVK6VKlSulQczjtxhNIB6WYf6YqUUnB2E7PEXaJL1/wBN18QlSpXor18yzpi5xOZZ0xc4nieJ4nieJ4nieJ4nieIyQAtVoIkEzT7FNjW92hjXOgXWPpki2jE1XAaLa7jSNRahjUlqdEw64WO5A9oAGohbxqjvDtRlou0RbRh5gwbcbxqWXEZuALzAKu4G/B2jlKFfEaMtHW5cg23pzGvAMYvHvCKc5WzMm176yqlSpUqVKlSpUqVKlSpUqVKlSpUqVKlfWGo6yGf+BPaZUEtaSsuXlV4B4DphtDGGAzY/RqV0rpUrpU4lSulTj0efT56BfFToBqq6ES+XKclZTbb/AIa2wXIzCA2aRsHYgWtjaY2bxGeuspKcnIyxYmFYiWGimjeAinpDuzQwytCBxNIWu0QGG7z2igcdkDgrC2ZfoCrY7P8AKP6BK01jZR2hrFu4Nz3g5VUwvYCZpefK/j+JF01g0AbRpa78P0kC5t3Qxrw3AMl9S7Tn4f36avpX3TE2kgjKroS2zTbr/J2b78TLzPeMa5INUU3YGT3igxprKxJCtRjJmZSBZeZkQa2cw1CPdinK3TDpLXHvNbo1eLimshGGi7mYgyYNwjAe8WMTVvYMJ7TMVJHdmyaY09wYayuLMsptBU8R25hgACgDAfxVes9yU1L7n6IZGQSiwpKH3mBtWjY0Tvq/EEagsTc+lcuX9mqx69C3YrW+RDzacf2luK7ivLrNXVXeA0XLVV2s3lsTLJUuJqcQk6a5y1KaATlAI6n5iqN/xDbURMFwaKHaM9ZYq367BKKhJsT9cCa6Tgp4YhV7f2Jn4Y0bXAr8P7lokZb/ADCrnWD8zq/iCljCA4D+LQYAmRtppHhx4hYooBNgNqclk0qIbkD+leqpXS+/Tz0uX0vpcvpfo36c9Nos3tSDgOV0DeKdUIpzSnfg0PfMVWFd4sC5YU25mb6KODMvAtGwQ2CrojiCw7Uf0Q9RQpVvLrJvWjSauq94l14FbxUrW4gWpwTDDCdOUv8AWrLUlAuj1eDg0JU5m826VOZvNulTmbzbpU5m826VOZvNulTmbzbpU5m826V0rrXSutdK6sS0Y11i+1n5mqnjQp6j2hgQ3xyf0vx9CpUqVKnPp5+jfR0FlV0GD3NicGSqHPung23tPars6xV34iVc+I2jEclSGJgAtG/MTcXSy4wvwU3ZTocsYlJGuCO0s0PvALlftLn9GYtafJ9SUF/BgvMEJpdZoZTdZpLly5cuXLly5cuXLly5cuXLly5cuXLly5cuXLly5cv7AtCQ9hf5Eq+yL+TWvimKiFrlHD2Q0PXcvpcvpfpv0V2lTxKniYNLkjQwO7EJUonlOTnxpGNVTu6R3a5l1XUwOzrEVKwKzrGpCNLaMew0HutwFgJ14gAzoa73LDqNrj6VpvGBjxHxGWXxQhk12Ucfj52e8B28mgf28ur/ACrpMWDNbZ/RiFlbeD8GIJzfzVZ+5wbykCZfsC/boRL1hVOMzl5d5TVPvEGZky3G0Cg5mFM07RNKKVaCBoe91nWYxSm5qQ8q0x42lgaXXtUZaWRUHeZBUYOjljmWVQGTHbXb2o7GZHQi0AJUolSpRKlEqVKJUolSpRKlEqVKJUolSpRKlEqVKJUolSpRKlErr8+n59Pz6GmEtd7oX4Ikhjq+R7IfM12iXtePw9alSpXqqVKlSpUqVKlSpUqI4MGHYcDd/uI0U2JaaPYz7sV6huxbVyyorl/Ush5jAWW3pHcgcaaswjRWqMZg6601yyoyRobMWrNffWYrP3DjvvExfEYBppmViStkm7x+8MTYoBgANDpv05679Oeu/Tnrv05679Oeu/Tnrv05679OZxNpvOJzOJtN5xOZxNpvOJzOJjjPnRLB+Yhh4HsT9w12u1PZQnP26k3Vlv4HnfQjZXgNNkWw4jIXLEWss7/MdGI0X7sqcgKq0ywQBg0rSt4toAWl1uoNyWLDeSMOXDijSMstMsY70R0KvMthkbEGgwB9OOPjtb+0AwwegGgGx/MjpzkMtSB2bUFMnirlGEB8U9B6/P08RmPckFMcBwbxNL8M7AaAGhtNQi/iFa38RyMC6HJrhhgtr4jCtFGsPEo2KwWbxwEjCVpDQgqtZao2G5qXBW1dZTNaTOBbDFDqFVrEaM2gvg8KN/bU5jAFAbASpZMSyYmJZMSyYmJZMSyYmJZMSyYmJZMSyYmJZMSyYmJZMSyYmJZMSyYmPsRToux4NbKaAbJtsV7ayygpQfcH+vXiYmJjiYnieOnieJ4njp4niXcjOiSYPd48nEZC2/J/2A4iOy+8R6ywJBXTtCgAzrBVBQt7xgWqvQ5i3LQ5LHtMEANGK7wLTp3azvm8ty8Bsd4prGs2S4irchghlBXYogccbv2RAAMAGhMTH8yWFQYugr/EZkvywN3j2hgJnR5zfm/RUr089Oeu84nPXSK1UBq8Z57dt+IshLVLVV1Y7VV3qK6vErtj5bJVDZglowxi1ZZXYNOoTMWmdJlpWjuJQNNM7xRVvr3ltqybQF0xxHYA1CqloAd5ZsVGK0J+gvd2gAHouXL6XLly+ly5cvpcuXL6XLly+ly5cvpcuXL6XLly+l/YXAHZRzWUw80l0CsZs1b3iZ4trkvT1qH11raP8N5t7pv+B76Mac+VXVtzmIF+8o5faNmSJDbvEaQ0uE3lqSexxMSFIVOQAxXES2zresBi8S+94MxZXGVSkigBarD0Uh2NKB+C03gVK1nHTeeJXSuniV0rp4ldK6eJXSuniV0rp4ldK6eJXSuniV0r7FglqLTQhg/BALMKUFblfNTWUctylv5v7IQ20G7FFikkG7mrqOzbmJBsXPMHWW5ewtjDIKr2lxTba52w23mOtMXV1ASwWRqlDcj3HfvFNq7Qm0ZlzOvEvtWu0fZlh6hAlDoBuwIohlgTAe/Tb30DHSu030laYnjpXbpXbrXbpXbrXbpXbrXbpXbrXbpXbrXbpXbrXbpXbrXbpXbpUqVKlSpUqVKlSpUqVP6kFCxsYNRxd5fP9RDAjAUDs9oYAoCiV6K6VKld5Ur1HTZUUAaqxr2w6E1n9jdtjVuSucy5tjWveXUAmgPeWvgEwQLoyxF6hMuLOKy+0QEaKrvSOjS3EFNK3Aor8SjhawveEypoA7wtKDhu52f195X88IXyYNv4UXM3CYESrjxUlOyw+V/EOj9Ln0Lz0UAaquhHajV1ytw/6xM5NsRQKVzFc3Uq9GL3ZQK7zCAustw4K5spiuF65llUFXdRIUNmzKFiu0BVj2My4z2jA0HiF+2PaHFECyZEdlsfxbQKv6N9bx0vreOl9bx0vreOl9bx0vreOl9bx0vreOvPTbrz02689NolvaxO5XwB+YSsueVU1O9qfEGLYmCt1fs+JxNuly5cv6KGgEgm6soTSyrHV447t+zBdVc3GZVVgoVTO0VNsLJj+5kcrWjKrepk2QdQ0tcmvtEqaOlhMgBWpiLrDWK0DGuYTbnxEcGGCNfdg8E1WzGkv/d4EDH0tuvPTbrz02689NuvPTbrz02689NuvPTbrz0vrfS+t9L62RLTXV40XzV+YoRyVKpZp20hZUHvK/0nS/qouenQouDRlFHHY3NnvLgBeYzTKNN7Y0BTOlxCm3cuUBcFoM+Yblu28MxgoGKexvFhxw88RfMJmtIyj2TmIs3MQo2WJmXyk4gxXkWphwarqIP/AGd/bWv5K5cuXLly5cuXLly5crmwnu4/Jl5VDswIqxkqPFOli78DCIFAUEuX9R3q2q8HK7EU7C5pDSrV4NopVB2iummsILbmqnPFS9MmNLlixqajRKVQWacTKl4E8d4AHIMXe0LAzTjMActaiUNMR3sIzMLe0MmmyeXgMq7BC8fDLGs2bcurPiZmZmZmZmZmZmZ9Hx6fj0/Hp+PT8en49Px6fj661FQaGcFB5b+IJu9uMtr7FV5lMBeUVYV+H5+takkGTYN1sRyIqXFaX7r8XRLFvMUxFtH2jYqnmKgLLpqWgGFB3cEQtApu4EGhcuHaKsQRlKh+k0K/7WZwuhMw6mzVd4IKRzHXOvaKH6g5S4MDqrsGqsVBiIab59B+d+nieJ4njp4nieJ46eP5ZAlwQ2gGRkMB8/3Lwm2a1bpwfqMoOvpzp+K9G3pqeOldphYY5NlqE8EAbCHtHNSjGAtrPMtiNvVqM1HVgCJVzv8AiIupptBA0qx1JcGUEmqLbakphBq2lJX7lKuoHDDxGXV0buNQskY0uZuCPmL94rPDBqGU2G6wF9tQdewLrvVv1qlSpUqVKlSpUqVKlSpUqVKlSpUqVKlSpUqVKlSpUqVKlSpXWvTXpqFXTo8C+C3xBWuBmz/dSnF5dhV+CCQoCg7SvVt6LqaPEe2Te/RvHXvsRbgFluDC4IFjbzRFjneJkGG/aAUO7DtY8QHYBD4TUhdoDVuzMeU2EYUOoA07TSXrR3mJoaz3i0HLRHlDh2iIvYjhV3rNbzixvE2IM7ChOMcDY8suXLlsuWy5ctly2XLlsuXLl9Lly5fS5cuX0uXLl9Lly5fS5cuX0uXLl9Lly5f1tIARvXVwvBXyxYIqm4qYa97+JUgFicD+g8s2+miFQOpGvcVb8XMulo+xNglnNcxS7SHkLdCGknY7D2TeU0DtPJhf6iUQGqZX9S6b/wBg94BwQKsKcZhCuSxpqd2ALG3d2NxXNasGw71VS12faGgsv4l5Krucl6wfuB7ADf6o2OldK610rrXSulSpUqVKlSpUqVKlSpUqVKlSpUqVKlSpUqVKlSpUqVKlSpUrrXpr0++oAUYPOkRD1YLWV7yhNBX4apXeXI90Dyvz0r6C1K7mmMNYzWftocxGUFbg2A0BgIKhq/EW5EyR5Km0GtsdjAYEBTqN2U8xPBcqGA7e/MvsHSeA/wAMCW7FHB28xlZrdmX3Wy7QFRv+Jkulc7wCAW6XBKHhO/T+t4eiwA6PVeODb+bvpfW+l9LmNBufG4e7+pmAsgYXf6YizCix7j7234630v1WDK5gHTgODf2ik+WRV2OA0rSIuUKm2WWjbxU0gFXxEtUrR2uKgbV6Bd3tAwBtynxKhjW1r55jpmiyxX3/AFLCDeVXPO0BMxrGowTcaynvDIGnG8s5/VzZXl4N5o+LyLP0aHS5cuXLly5cuXLly5cuXOZxNuvM4m3XmcTbrzOJt15nE268zibdeZxNuvM4m31iVqPUALVlr8Fy1aN8VB6zFGwotV5Vg48pOoUA+D8/RWXdRUbDk9uzBvFL8siveOqVc3ETKe0G4WwEqLScR3C9i1kjMLExVfuURBQFxDWrxAmQbjLOLdlvTtLV/WB5Jp89qcoQ1wBO0Fss7kC2Wj6zb8BAiMKByX3f19nXSpXSulSuldKldK6VK6V0qV0rpUrpXSpXSulSvqtrH1HIf7YPmMjZAAFHJ4GPaHg2q6i5v3wQiAAYA2+iE0Cxyuh7Gr2imgpKAvAGwaVsRXqe0WzkD5lkwRWRfG0U5QGA3gLKgNm4eJgACFhsdu8A4vS05PaELSmaNDGYNAU4ttCrsXJycRlmD/EIwY+Bi1DQYIYASGwGtO/ZtvBD5jJuk3XP2lzzLnnpc8y556XPMueelzzLnnpc8y556XPMueelzzLnnpc8y5567TecddpvOOg8DqHAGrFMq6NAaPnV94PQlrEVMPYRw2YW1Bg+dfjrtN5x0uXDZIBlXaN1aCrE+QvwEsondlLOWAsBXjiP2YzcErT2dYejiw06xOkQgBxyfmJXATJywQqC1DK95aqrQxvK0XbRlmNBmF7rIGjHiFt1dkmwa4ndkwvLt8X++NRVd13f56ulSuldKlQYtiw4Gte7j5hpvUVZtP0A3LA83DZav6hjggBoBtK6V0qV1FRZK6ZCdyzxEdZTKzKjY4qML1NPtHF1ezzLko4UU/cZcBLqoeDKAUwfaYQisNLuEEnWYlhHQtg3YLk176zN77xkB75lpjFObeJacjCu0pSgBhq3eU4xbH2D/wCA39O/QxNgHSJGvK4HT4Zih7ZLRq32hqlAdVRp86/END0b+nBJR70iHRkbWLYBoW7iGbbEXY7NS0ippWDFGrKwaB1d5UYZF0zLIFlgeGKKK0qOJG+IlhpuWwqMLW+nJD3ZmlzSrUGcQSDBUbQA06cTn0cTn0cTn0cTn0cenHpx6cenHpx6cenHpx9HQjsFKxO+w/vyQ0CvkuGAplC6OtcXpBDCAGx9FhwoBOMv6wlXvAzhXEBsoXkNoKUNBN4aKKFrgWZ9i2bWszuZ25gRCiGraIW7VeJdniMigQNFUVq0udo4A9DAnxrt30N2Ga8YG2A0lSpX2vM4m3XmcTbrzOJt15nE268zibdeZxNuvM4m3XmcTb6elIYOWgfMVNeaYlSrt3hnSMXbYf39GuhdIODOQf8AOYjDeJiaDSoWiDWFid8gqClm9G9IQFCyqpizWFcHbkjJWhrnMsxQvtKPDcWsrZa+ugpSspt+8KgAWgaAGh6a6VKlSulSpUrpUqVK6VKlfxnEz1uU9pxd7vxp8wzElLjx/TDxAUAB04mfRxM9QLjSFu0O6CeYizERsiY1NzK4d4OolQDxBUtrEKrTe8LRznXvAAZb4i1h7x4FQKjvDdN4b+2oXVAqAaAeribS+nM4m0vpzOJtL6czibS+nP8AE+ZfeXLl955lwYHyzd8QjfGSoFoeHdYSZWY7/wCpfeXLl955l95cuX362AljhGZOFQNtvsVeO3tLDRntLIihTF94rZLtzUqWioomMQkC/eCoymRYADVi5+B1nAfw2b8QiAAFAGk4nM368TxK7TxKOJ4niV2niUcTxPErtPEo4nieJXaeJRxPEqV0qVKldKlSpXSpUqV0qVKldKlSpXSpUqV0qVKldKleunwlGgGrAVhUeBv51hlQLsd/eKLT0E1/1+tmMuVwj7B3ifnvFhdAf4naIrF7gVNOIbRTonao5LNtiHKoPMAhwOH7vfsZlCFbD2bHvr7aQAfpb9Oeu/Tnrv05679Oennp56+ennr56eevnp56+ennr56eevnp56+enn6HKpIdP7H9QLBQawgdrP8AL+4ImKh57/VNeh6JpAOEdY4F7VLvuKPFTavRU+KS7MPQPlqSrIa0V5pHQFZSX8V+VhTCog3ABR139O/3Hnp56+ennr56eevnp56+ennr56eevnp56+enn1OqKKbc0InSmzmNNqs0mE8eKZ/2fV19NEolH/xiAq0d4I7t+i7sF2pm+ZSm6U54PP8AUAAFBsfXuX9jXpr016a/ja6OIKU0D/vMst0ZHvBGrKBqu01bs7hdK6V1rpXWpv8ATv039xfpv036b9N+m/Tfpv6FZgHcWwRyG+ERFpc1vHBk6hq7/Yqleu5fS+ly+l/z9C1rvFc3cLluzLdO6TtNTqQHoOgNj7Tx18fVx0x1x0x1x0x1x0x/FbRw8G2qeLz+pcktYe7aVW/aENT5hx7H2J9DZm/TmcTZm/Tmcenz6fPp8+nzKnmVK7zzKnmVK7zzKnmVK7zzKnmVK7zzKnmVK7zzKnmVK7zzKnmVK7zzKnmVK7zz0eeyV2TB7S28gi3GBMcbkXiVbd5lV0rpUrpXSpXSulej4630vpcvpfS5fS/552wLQXW0Y50B2t23joC7MzUmnsSEzQgO32Xf+Hx6cenHpx6cenHpx6cdcTarLBlx4/cpUt3gqMvWA5MLkWYN3iYqYzMTExcxUxmYmJi5ipjMxMTFzFdPH069NfztwGGEmWdxisdq2rvmV0TGg4gMoeKZDmG3/wA+3VBpeVsEbyPMmwEwuhSooZBhftDIAAoDaePT49Pj0+PsOPTxOel46XpOel46XpOel46XpOel46XpOZxNpv05nE2m/TmcTab9OZxNpv05nE2m/TmcTab9OZxNpv05nEUDMNgZYtui983HszKcVKbgA7cn2mSUy3E1fvefRxOfRx9vz6efTz6efTz6efTz6NppMo7K/wBu3mX0FqD/AOjmaEbI4tgO8qxIvdBXSutdK610rrXSvrX6b+3uXLly5cuXLly5cuXLly5cuXLly5cuXLly5cuXLly5crdrtNNOD25jjdp/t7BxC1CVcL3fASoJ1UOZi969vtXrfXz089PPXz089fPor016a9NfwxKmX6ARvZN5fZN1/wBpDXKFSw4DyxryqXqNvHHtBfjBUAbfcfM+f4TeeZzmcZm2s3nmc5nGZtrN55nOZxmbazeeZzmcZm2s3nmc5nGZtrN55nOZxmbazeeZzmcZi1A1w+OHbGz8vtARq0CmlW8axhRS2wOv7fEWC6y9W1Wba9L7zzL7y+/S+88y+8vv0vvPMvvL79L7zzL7y+/U0+yvXpfS9JevS+l6S9el9L0l69L6Xp1v036b9N+m/TfpuLUUdD85TF+7VEVpBtNWXDKbC7Oi8R6Y1ko2zx3630ueOl9LnjpfS546X0uePQTbpxOZvNpv9O5cuXLly5cuXLly5cuXLly5fTj08enj08enj08enjpSuCpv6Htu9omZw2haoK2DSGLbzTaWUrzXmDoVsxy/bb/UCjrmUzMpmZmUzMpmZmUzMpmZmUzMpmfRf2NSpUqVKlSpUqVKlSpUqVKlSv4F/RnqANZr4fSsYs0b4YuTQsxOc/piBBjaFIUahgv9EKaWgwBt6L6XLly+ly5cvpcuXL6XLl/V8enx1rpUrpXSpXSulSuldKlfwLpFJJrBpoX3br2hXJZtEMOXa7gA2BVTHAIIsOhruL/A8+jb07fyq1MstDuuwd1xCgyShmsnndlGxIJTTVveYxK7xfouPTx6ePTx6fH8Lfpv036b9N+m/QhSuoXgLh0G07AUm/LMGL05IUAaFLcu7Cx1gwBl4qcXKqHscbEAgAoAwEv0+Ovjp46+Onjr46eOvj6HM4m039FemvVj049OPTj71xKKseLssL98w8d7GgJotaMVYBounq/494jkw1WvL3ZjGkrNsYPXUqVKlSpUqVKlSpUqVKlSpUrpcuXLnE56bfzjpAhwWRSRTvqspTzFlgB8WwKQICrW22+B8zGdbBP+K/huJz02m84nPTab9M9MzPTPTMz0z0zM9M9MzMzM9MzMzM9MzMzM9MzMzM9MzMzM9MzMzM9Kjtf2bIyohZkH2dotBgCnPK+8r2Gg/uZmZmZ6Zmfu95t/PpNK1KL9zv8AS8TxPE8dPE8TxPHTxPE8Tx08TxPE8SpUqVKlSpUqVK6V0qV0rpUqVKlSpUqVKlSpUqVKlSpUqVKlSpUqVKlSpUqVKlSpUqVKlSpUqVKlSpUqVKlSpUqVKlSpUqVKlSpUqVKlSpUqVKlSpUqV/wDpD//Z;" vertex="1" parent="1">
          <mxGeometry x="-480" y="140" width="130" height="130" as="geometry" />
        </mxCell>
      </root>
    </mxGraphModel>
  </diagram>
</mxfile>
